<?xml version="1.0" encoding="UTF-8"?>
<svg width="360px" height="103px" viewBox="0 0 360 103" version="1.1" xmlns="http://www.w3.org/2000/svg" xmlns:xlink="http://www.w3.org/1999/xlink">
    <!-- Generator: Sketch 50.2 (55047) - http://www.bohemiancoding.com/sketch -->
    <title>bbc</title>
    <desc>Created with Sketch.</desc>
    <defs></defs>
    <g id="Page-1" stroke="none" stroke-width="1" fill="none" fill-rule="evenodd">
        <g id="bbc" fill="#000000" fill-rule="nonzero">
            <path d="M0,103 L0,0.451615385 L108.670549,0.451615385 L108.670549,103 L0,103 Z M66.8026484,49.3920654 C66.8026484,49.3920654 76.2803407,45.348325 76.1982527,34.6184981 C76.1982527,34.6184981 77.6392418,17.0401615 54.3777033,14.8939981 L28.5605604,14.8939981 L28.5605604,88.5944648 L58.1488022,88.5944596 C58.1488022,88.5944596 82.8740769,88.6776519 82.8740769,67.7963827 C82.8740769,67.7963827 83.4506703,53.6012 66.8026484,49.3920654 Z M69.3572637,66.7237962 C69.3572637,77.8656231 55.5111099,77.2050365 55.5111099,77.2050365 L41.664956,77.2050365 L41.664956,57.0675462 L55.5111099,57.0675462 C69.7696813,56.9853442 69.3572637,66.7237962 69.3572637,66.7237962 Z M41.664956,26.3656231 L52.2147363,26.3656231 C63.1759451,26.9440077 62.7635275,35.1136904 62.7635275,35.1136904 C62.7635275,45.2651327 50.6481429,45.4305269 50.6481429,45.4305269 L41.664956,45.4305269 L41.664956,26.3656231 Z M125.604396,103 L125.604396,0.451615385 L234.274945,0.451615385 L234.274945,103 L125.604396,103 Z M192.407044,49.3920654 C192.407044,49.3920654 201.884736,45.348325 201.802648,34.6184981 C201.802648,34.6184981 203.243637,17.0401615 179.982099,14.8939981 L154.164956,14.8939981 L154.164956,88.5944648 L183.753198,88.5944596 C183.753198,88.5944596 208.478473,88.6776519 208.478473,67.7963827 C208.478473,67.7963827 209.055066,53.6012 192.407044,49.3920654 Z M194.961659,66.7237962 C194.961659,77.8656231 181.115505,77.2050365 181.115505,77.2050365 L167.269352,77.2050365 L167.269352,57.0675462 L181.115505,57.0675462 C195.374077,56.9853442 194.961659,66.7237962 194.961659,66.7237962 Z M167.269352,26.3656231 L177.819132,26.3656231 C188.780341,26.9440077 188.367923,35.1136904 188.367923,35.1136904 C188.367923,45.2651327 176.252538,45.4305269 176.252538,45.4305269 L167.269352,45.4305269 L167.269352,26.3656231 Z M250.632198,103 L250.632198,0.451615385 L359.302747,0.451615385 L359.302747,103 L250.632198,103 Z M337.131989,20.1772048 C325.098692,15.1430798 316.775176,14.317099 316.775176,14.317099 C302.846934,12.9969163 295.099022,15.9680702 295.099022,15.9680702 C266.087374,24.8815317 266.994297,51.7259067 266.994297,51.7259067 C267.819132,77.8274933 289.577374,85.7901856 289.577374,85.7901856 C315.456824,96.0238298 337.791659,82.7368298 337.791659,82.7368298 L337.791659,68.623849 C321.143637,79.2704837 308.863088,77.7849067 308.863088,77.7849067 C279.605176,76.3815317 280.594187,51.7259067 280.594187,51.7259067 C281.830451,24.9241183 309.192429,25.458926 309.192429,25.458926 C323.862429,25.6243202 337.131989,33.7949933 337.131989,33.7949933 L337.131989,20.1772048 Z" id="Combined-Shape"></path>
        </g>
    </g>
</svg>