<?xml version="1.0" encoding="UTF-8"?>
<svg width="136px" height="113px" viewBox="0 0 136 113" version="1.1" xmlns="http://www.w3.org/2000/svg" xmlns:xlink="http://www.w3.org/1999/xlink">
    <!-- Generator: Sketch 54.1 (76490) - https://sketchapp.com -->
    <title>crown</title>
    <desc>Created with Sketch.</desc>
    <g id="Ideation" stroke="none" stroke-width="1" fill="none" fill-rule="evenodd">
        <g id="5-homepage" transform="translate(-851.000000, -3066.000000)" fill="#FFFFFF" fill-rule="nonzero">
            <g id="crown" transform="translate(851.000000, 3066.000000)">
                <path d="M58.0291326,18.2474074 C57.3604976,19.5866667 56.6918626,20.0888889 56.8590213,21.0933333 C57.0261801,22.0977778 58.0291326,22.6 58.3634501,23.6044444 C58.8649264,22.4325926 59.5335614,21.762963 59.5335614,20.7585185 L58.0291326,18.2474074 L58.0291326,18.2474074 Z M74.5778492,18.2474074 C76.5837542,22.4325926 75.413643,21.2607407 74.0763729,23.6044444 C73.5748967,22.4325926 72.9062617,21.762963 72.9062617,20.7585185 C73.2405792,20.2562963 74.2435317,18.917037 74.5778492,18.2474074 L74.5778492,18.2474074 Z M48.6682424,17.5777778 C49.3368774,17.5777778 49.8383537,17.0755556 49.8383537,16.4059259 C49.8383537,14.8992593 47.6652899,14.8992593 47.6652899,16.4059259 C47.4981311,17.242963 47.9996074,17.5777778 48.6682424,17.5777778 L48.6682424,17.5777778 Z M49.3368774,19.2518519 C49.3368774,17.7451852 47.1638136,17.7451852 47.1638136,19.2518519 C47.1638136,20.7585185 49.3368774,20.5911111 49.3368774,19.2518519 L49.3368774,19.2518519 Z M49.8383537,21.9303704 C49.8383537,20.4237037 47.6652899,20.4237037 47.6652899,21.9303704 C47.6652899,23.437037 49.8383537,23.437037 49.8383537,21.9303704 L49.8383537,21.9303704 Z M54.8531163,12.3881481 C56.3575451,12.3881481 56.3575451,10.2118519 54.8531163,10.2118519 C53.3486875,10.2118519 53.3486875,12.3881481 54.8531163,12.3881481 L54.8531163,12.3881481 Z M52.0114175,13.2251852 C53.5158462,13.2251852 53.5158462,11.0488889 52.0114175,11.0488889 C50.5069887,11.0488889 50.5069887,13.2251852 52.0114175,13.2251852 L52.0114175,13.2251852 Z M49.8383537,15.0666667 C51.3427825,15.0666667 51.3427825,12.8903704 49.8383537,12.8903704 C48.5010836,12.8903704 48.5010836,15.0666667 49.8383537,15.0666667 L49.8383537,15.0666667 Z M57.6948151,12.5555556 C59.1992439,12.5555556 59.1992439,10.3792593 57.6948151,10.3792593 C56.1903863,10.3792593 56.1903863,12.5555556 57.6948151,12.5555556 L57.6948151,12.5555556 Z M60.5365139,13.3925926 C62.0409427,13.3925926 62.0409427,11.2162963 60.5365139,11.2162963 C58.8649264,11.2162963 59.0320851,13.3925926 60.5365139,13.3925926 L60.5365139,13.3925926 Z M63.0438952,14.5644444 C64.548324,14.5644444 64.548324,12.3881481 63.0438952,12.3881481 C61.5394664,12.3881481 61.5394664,14.5644444 63.0438952,14.5644444 L63.0438952,14.5644444 Z M82.9357869,16.5733333 C82.9357869,18.08 85.1088507,18.08 85.1088507,16.5733333 C85.1088507,15.0666667 82.9357869,15.0666667 82.9357869,16.5733333 L82.9357869,16.5733333 Z M84.2730569,18.08 C82.7686281,18.08 82.7686281,20.2562963 84.2730569,20.2562963 C84.9416919,20.2562963 85.4431682,19.7540741 85.4431682,19.0844444 C85.4431682,18.5822222 84.9416919,18.08 84.2730569,18.08 L84.2730569,18.08 Z M83.7715806,20.7585185 C82.2671519,20.7585185 82.2671519,22.9348148 83.7715806,22.9348148 C84.4402157,22.9348148 84.9416919,22.4325926 84.9416919,21.762963 C84.9416919,21.2607407 84.4402157,20.7585185 83.7715806,20.7585185 L83.7715806,20.7585185 Z M77.7538655,12.3881481 C79.2582943,12.3881481 79.2582943,10.2118519 77.7538655,10.2118519 C77.0852305,10.2118519 76.5837542,10.7140741 76.5837542,11.3837037 C76.5837542,11.7185185 77.0852305,12.3881481 77.7538655,12.3881481 L77.7538655,12.3881481 Z M80.5955643,13.2251852 C82.0999931,13.2251852 82.0999931,11.0488889 80.5955643,11.0488889 C79.0911355,11.0488889 79.0911355,13.2251852 80.5955643,13.2251852 L80.5955643,13.2251852 Z M82.7686281,15.0666667 C84.2730569,15.0666667 84.2730569,12.8903704 82.7686281,12.8903704 C82.0999931,12.8903704 81.5985169,13.3925926 81.5985169,14.0622222 C81.5985169,14.7318519 82.2671519,15.0666667 82.7686281,15.0666667 L82.7686281,15.0666667 Z M74.9121667,12.5555556 C76.4165955,12.5555556 76.4165955,10.3792593 74.9121667,10.3792593 C73.4077379,10.3792593 73.5748967,12.5555556 74.9121667,12.5555556 L74.9121667,12.5555556 Z M72.2376267,13.3925926 C73.7420554,13.3925926 73.7420554,11.2162963 72.2376267,11.2162963 C70.5660391,11.2162963 70.5660391,13.3925926 72.2376267,13.3925926 L72.2376267,13.3925926 Z M68.3929753,13.56 C68.3929753,14.2296296 68.8944516,14.7318519 69.5630866,14.7318519 C71.0675154,14.7318519 71.0675154,12.5555556 69.5630866,12.5555556 C68.8944516,12.3881481 68.3929753,12.8903704 68.3929753,13.56 L68.3929753,13.56 Z M64.3811652,19.5866667 L65.7184353,19.5866667 L65.7184353,14.8992593 C65.216959,14.8992593 64.8826415,14.7318519 64.3811652,14.5644444 L64.3811652,19.5866667 Z M68.2258166,14.397037 C67.8914991,14.5644444 67.3900228,14.7318519 66.8885465,14.7318519 L66.8885465,19.4192593 L68.2258166,19.4192593 L68.2258166,14.397037 L68.2258166,14.397037 Z M65.5512765,9.04 L65.5512765,6.36148148 C64.0468477,6.6962963 63.0438952,7.86814815 62.8767364,9.20740741 L65.5512765,9.04 Z M67.0557053,9.04 L69.7302453,9.04 C69.3959278,7.53333333 68.3929753,6.52888889 67.0557053,6.19407407 L67.0557053,9.04 Z M62.8767364,10.5466667 C63.7125302,14.2296296 68.8944516,14.2296296 69.7302453,10.5466667 L62.8767364,10.5466667 Z M68.2258166,5.85925926 C67.3900228,5.18962963 66.7213878,4.35259259 66.7213878,3.34814815 C67.7243403,3.51555556 68.5601341,4.18518519 69.2287691,4.85481481 L69.2287691,1.17185185 C68.5601341,2.00888889 67.7243403,2.67851852 66.7213878,2.67851852 C66.8885465,1.67407407 67.3900228,1.00444444 68.2258166,0 L64.548324,0 C65.3841178,1.00444444 66.0527528,1.67407407 66.0527528,2.67851852 C64.8826415,2.51111111 64.0468477,2.00888889 63.3782127,1.17185185 L63.3782127,5.02222222 C64.0468477,4.18518519 64.8826415,3.51555556 65.885594,3.51555556 C65.7184353,4.52 65.0498002,5.35703704 64.3811652,6.02666667 C64.2140065,5.85925926 68.2258166,5.85925926 68.2258166,5.85925926 L68.2258166,5.85925926 Z M68.2258166,85.88 C66.554229,85.88 66.554229,83.2014815 68.2258166,83.2014815 C70.2317216,83.0340741 70.2317216,85.88 68.2258166,85.88 L68.2258166,85.88 Z M61.7066252,83.7037037 C59.8678789,83.7037037 59.8678789,80.6903704 61.7066252,80.6903704 C63.879689,80.6903704 63.879689,83.7037037 61.7066252,83.7037037 L61.7066252,83.7037037 Z M59.5335614,77.0074074 C58.0291326,75.6681481 57.6948151,76.1703704 56.0232276,78.0118519 C57.5276563,79.3511111 57.1933388,80.8577778 54.8531163,79.5185185 C53.3486875,81.8622222 53.3486875,81.8622222 56.0232276,83.3688889 C54.5187988,84.3733333 50.8413062,82.6992593 53.683005,78.3466667 L53.01437,77.1748148 C53.5158462,77.1748148 53.8501638,77.3422222 54.35164,77.5096296 C58.8649264,72.6548148 61.0379902,78.3466667 59.5335614,77.0074074 L59.5335614,77.0074074 Z M72.4047854,82.3644444 C68.8944516,81.36 64.7154827,80.0207407 60.8708314,78.1792593 C61.0379902,76.1703704 59.3664026,74.6637037 57.8619738,74.6637037 C56.8590213,74.6637037 57.0261801,75.5007407 55.1874338,73.157037 C53.683005,71.482963 52.5128937,69.3066667 51.6771,67.1303704 C51.1756237,65.7911111 50.8413062,64.6192593 50.6741474,63.1125926 C50.5069887,64.2844444 49.1697187,65.7911111 46.9966549,65.7911111 C47.3309724,63.7822222 46.4951786,66.6281481 43.3191623,65.6237037 C43.6534798,67.1303704 44.154956,68.637037 44.6564323,70.3111111 C45.8265436,73.4918519 47.4981311,76.3377778 49.6711949,78.6814815 C50.3398299,79.5185185 51.1756237,80.1881481 51.8442587,80.8577778 L51.8442587,81.36 C51.8442587,82.8666667 54.1844813,85.5451852 56.5247038,83.7037037 C60.3693551,85.7125926 66.0527528,87.2192593 69.8974041,87.2192593 C71.5689916,87.2192593 73.9092142,86.3822222 76.082278,85.042963 C77.0852305,84.3733333 77.7538655,83.7037037 78.5896593,83.0340741 C76.9180718,83.3688889 74.4106904,82.8666667 72.4047854,82.3644444 L72.4047854,82.3644444 Z M71.2346741,96.5940741 C70.9003566,96.0918519 70.5660391,95.757037 70.2317216,95.757037 C68.7272928,95.757037 69.3959278,99.6074074 67.7243403,99.6074074 C66.8885465,99.6074074 66.554229,99.1051852 66.554229,98.602963 L66.8885465,97.4311111 C66.8885465,96.5940741 65.3841178,96.5940741 65.3841178,97.4311111 L65.7184353,98.602963 C65.7184353,99.1051852 65.216959,99.6074074 64.548324,99.6074074 C62.8767364,99.6074074 63.3782127,95.757037 62.0409427,95.757037 C61.7066252,95.757037 61.3723077,96.0918519 61.0379902,96.5940741 C60.0350376,94.7525926 61.0379902,93.4133333 62.3752602,93.4133333 C64.2140065,93.4133333 63.879689,95.9244444 64.7154827,95.9244444 C65.216959,95.9244444 65.3841178,95.5896296 65.3841178,95.2548148 C65.3841178,93.7481481 61.8737839,93.4133333 66.0527528,90.0651852 C70.2317216,93.4133333 66.7213878,93.7481481 66.7213878,95.2548148 C66.7213878,95.5896296 67.0557053,95.9244444 67.3900228,95.9244444 C68.3929753,95.9244444 67.8914991,93.4133333 69.7302453,93.4133333 C70.9003566,93.4133333 71.2346741,94.4177778 71.2346741,94.92 C71.7361504,95.4222222 71.5689916,95.9244444 71.2346741,96.5940741 L71.2346741,96.5940741 Z M66.3870703,101.783704 C65.0498002,101.783704 65.0498002,99.9422222 66.3870703,99.9422222 C67.5571816,99.9422222 67.5571816,101.783704 66.3870703,101.783704 L66.3870703,101.783704 Z M70.2317216,92.5762963 C69.8974041,92.5762963 69.7302453,92.5762963 69.5630866,92.7437037 L69.5630866,88.5585185 C67.7243403,88.5585185 65.5512765,88.2237037 63.3782127,87.5540741 L63.3782127,92.5762963 C61.2051489,91.7392593 58.6977676,94.4177778 61.5394664,97.4311111 C63.0438952,93.5807407 62.5424189,99.7748148 65.0498002,99.9422222 C65.0498002,100.10963 64.8826415,100.277037 64.8826415,100.611852 C64.8826415,103.122963 69.0616103,102.453333 68.0586578,99.9422222 C70.5660391,99.7748148 69.5630866,93.5807407 71.5689916,97.4311111 C72.0704679,96.7614815 72.7391029,95.9244444 72.7391029,94.7525926 C72.5719442,93.9155556 71.5689916,92.5762963 70.2317216,92.5762963 L70.2317216,92.5762963 Z M119.376395,97.7659259 C119.209236,97.5985185 119.042078,97.4311111 118.874919,97.4311111 C108.0096,100.611852 87.7833907,73.4918519 81.2641993,89.0607407 C79.0911355,94.4177778 75.0793255,96.2592593 82.6014694,99.9422222 C83.6044219,100.444444 84.1058982,100.779259 84.2730569,101.281481 C77.0852305,104.462222 64.7154827,105.131852 55.8560688,103.457778 C45.1579086,101.616296 48.6682424,100.611852 51.1756237,99.2725926 C57.5276563,95.9244444 53.8501638,94.5851852 51.6771,89.0607407 C47.4981311,79.1837037 35.4627009,87.8888889 31.1165733,90.9022222 C25.2660169,94.92 19.2483018,98.7703704 14.2335392,97.4311111 C13.7320629,97.2637037 13.3977454,98.1007407 13.8992216,98.2681481 C21.4213656,101.616296 19.9169368,108.48 35.1283834,98.1007407 C38.9730347,95.4222222 42.9848448,92.7437037 46.8294961,92.4088889 C41.480416,97.9333333 43.6534798,95.5896296 46.6623374,106.471111 C48.1667661,112.665185 60.2021964,113 66.7213878,113 C74.5778492,113 80.0940881,112.162963 83.2701044,110.488889 C87.9505495,108.145185 85.9446444,105.968889 88.7863433,100.444444 C91.2937246,95.757037 88.953502,94.92 86.4461207,92.4088889 C94.3025821,93.0785185 102.66052,103.625185 110.015505,103.625185 C113.191521,103.625185 115.698903,99.7748148 119.376395,98.2681481 L119.376395,97.7659259 L119.376395,97.7659259 Z M67.0557053,59.597037 L67.0557053,41.1822222 C75.9151192,41.6844444 82.0999931,50.0548148 82.2671519,59.597037 L67.0557053,59.597037 Z M66.3870703,33.4814815 C61.2051489,33.4814815 57.5276563,34.9881481 55.5217513,36.3274074 C54.1844813,35.4903704 53.8501638,34.8207407 53.8501638,34.1511111 C53.8501638,31.1377778 62.2081014,30.9703704 66.554229,30.9703704 C70.9003566,30.9703704 79.2582943,31.3051852 79.2582943,34.1511111 C79.2582943,34.9881481 78.756818,35.6577778 77.5867068,36.3274074 C75.0793255,34.9881481 71.5689916,33.4814815 66.3870703,33.4814815 L66.3870703,33.4814815 Z M66.0527528,59.597037 L50.3398299,59.597037 C50.5069887,49.5525926 57.3604976,41.3496296 66.0527528,41.1822222 L66.0527528,59.597037 Z M89.7892958,58.4251852 C89.2878195,57.922963 88.284867,57.0859259 87.9505495,56.2488889 C84.2730569,48.5481481 83.2701044,48.5481481 84.6073744,46.8740741 L86.1118032,45.3674074 C84.4402157,42.5214815 81.5985169,39.3407407 78.2553418,37.1644444 C79.2582943,36.4948148 80.0940881,35.6577778 80.0940881,34.1511111 C80.0940881,33.3140741 79.7597706,32.6444444 79.0911355,32.1422222 C80.0940881,28.9614815 81.7656756,25.1111111 83.4372631,23.6044444 L80.2612468,22.2651852 C81.0970406,23.6044444 81.2641993,24.9437037 80.9298818,25.7807407 C80.0940881,25.1111111 79.4254531,24.2740741 79.2582943,23.437037 C79.0911355,24.4414815 78.5896593,25.9481481 78.088183,26.9525926 C79.0911355,26.4503704 79.5926118,26.282963 80.5955643,26.6177778 C78.756818,29.1288889 74.4106904,27.7896296 74.4106904,26.1155556 C74.4106904,25.6133333 74.9121667,24.9437037 75.5808017,24.9437037 C76.2494367,24.9437037 76.4165955,26.1155556 76.082278,26.4503704 C77.0852305,25.9481481 77.9210243,23.2696296 76.5837542,22.9348148 C75.413643,22.6 74.5778492,24.2740741 74.0763729,25.2785185 C73.2405792,20.4237037 69.5630866,23.2696296 71.7361504,26.1155556 C71.9033091,25.1111111 72.4047854,24.6088889 72.9062617,24.6088889 C73.2405792,24.6088889 73.9092142,24.9437037 73.7420554,25.7807407 C73.5748967,26.6177778 72.4047854,27.2874074 71.0675154,27.2874074 C69.7302453,27.2874074 67.3900228,26.7851852 67.0557053,24.2740741 C67.8914991,24.4414815 69.2287691,25.1111111 69.8974041,25.9481481 C69.0616103,19.0844444 71.2346741,22.6 67.222864,23.437037 C67.5571816,22.2651852 68.3929753,21.2607407 69.3959278,20.4237037 L63.7125302,20.4237037 C64.8826415,21.0933333 65.7184353,22.2651852 65.885594,23.437037 C65.0498002,23.2696296 63.879689,22.7674074 63.211054,21.762963 C64.0468477,28.7940741 61.7066252,25.2785185 65.885594,24.2740741 C65.7184353,26.7851852 63.3782127,27.2874074 62.0409427,27.2874074 C58.8649264,27.2874074 58.6977676,24.9437037 60.2021964,24.7762963 C60.7036727,24.7762963 61.2051489,25.2785185 61.2051489,26.282963 C63.3782127,23.437037 59.7007201,20.5911111 58.8649264,25.4459259 C58.5306089,24.2740741 57.3604976,22.7674074 56.3575451,23.1022222 C54.8531163,23.437037 55.8560688,26.1155556 56.8590213,26.6177778 C56.0232276,24.9437037 58.3634501,24.4414815 58.3634501,26.1155556 C58.3634501,26.9525926 57.1933388,27.6222222 56.1903863,27.7896296 C52.6800525,28.6266667 50.8413062,24.7762963 54.6859575,26.6177778 C54.1844813,25.6133333 53.683005,24.1066667 53.5158462,23.1022222 C53.1815287,24.2740741 52.5128937,24.9437037 51.8442587,25.4459259 C51.6771,24.6088889 51.6771,23.1022222 52.5128937,21.762963 L49.3368774,23.1022222 C50.8413062,24.6088889 52.6800525,28.4592593 53.683005,31.64 C53.01437,32.1422222 52.6800525,32.9792593 52.6800525,33.6488889 C52.6800525,35.1555556 53.683005,35.9925926 54.5187988,36.6622222 C52.8472112,37.8340741 51.1756237,39.1733333 49.8383537,40.8474074 C47.6652899,43.1911111 45.9937023,46.037037 44.8235911,49.2177778 C45.3250673,49.72 47.1638136,51.7288889 47.4981311,52.2311111 C49.6711949,55.077037 47.8324486,55.4118519 49.8383537,57.922963 C50.0055124,58.2577778 50.5069887,59.4296296 50.5069887,59.9318519 L66.3870703,59.9318519 L66.3870703,77.0074074 C65.7184353,77.0074074 65.0498002,77.1748148 64.7154827,77.8444444 C72.2376267,80.8577778 69.0616103,79.6859259 70.9003566,77.1748148 C70.9003566,77.1748148 68.7272928,77.0074074 67.3900228,76.84 L67.3900228,60.6014815 L82.6014694,60.6014815 C82.0999931,75.5007407 71.7361504,75.1659259 71.2346741,80.8577778 C72.0704679,81.0251852 72.4047854,81.1925926 72.9062617,81.36 C79.9269293,83.0340741 79.9269293,82.8666667 83.2701044,78.8488889 C85.4431682,76.5051852 87.1147557,73.6592593 88.284867,70.4785185 C89.4549783,66.4607407 89.9564545,61.9407407 89.7892958,58.4251852 L89.7892958,58.4251852 Z M75.5808017,48.7155556 C75.413643,48.882963 75.413643,49.0503704 75.413643,49.2177778 C75.413643,49.3851852 75.5808017,49.5525926 75.9151192,49.5525926 C75.7479605,49.72 75.5808017,49.8874074 75.5808017,50.2222222 C75.9151192,50.2222222 76.082278,50.2222222 76.4165955,50.0548148 C76.4165955,50.3896296 76.4165955,50.557037 76.5837542,50.557037 L77.0852305,50.557037 C78.2553418,52.3985185 78.9239768,54.5748148 79.2582943,56.7511111 C79.0911355,56.5837037 78.9239768,56.5837037 78.5896593,56.5837037 C78.5896593,56.9185185 78.756818,57.0859259 78.9239768,57.2533333 L75.0793255,57.2533333 C75.0793255,56.9185185 74.9121667,56.7511111 74.745008,56.7511111 C74.5778492,56.7511111 74.4106904,56.7511111 74.2435317,56.9185185 C74.2435317,56.7511111 74.0763729,56.4162963 73.9092142,56.2488889 C73.7420554,56.4162963 73.5748967,56.7511111 73.5748967,56.9185185 C73.4077379,56.7511111 73.2405792,56.5837037 73.0734204,56.7511111 C72.9062617,56.7511111 72.7391029,57.0859259 72.7391029,57.2533333 L69.3959278,57.2533333 C69.5630866,57.0859259 69.5630866,56.9185185 69.5630866,56.5837037 C69.2287691,56.5837037 69.0616103,56.7511111 68.8944516,56.9185185 L68.8944516,51.7288889 C69.2287691,51.7288889 69.3959278,51.5614815 69.3959278,51.3940741 C69.3959278,51.2266667 69.3959278,51.0592593 69.2287691,50.8918519 C69.3959278,50.8918519 69.7302453,50.7244444 69.8974041,50.557037 C69.7302453,50.3896296 69.3959278,50.2222222 69.2287691,50.2222222 C69.3959278,50.0548148 69.3959278,49.8874074 69.3959278,49.72 C69.3959278,49.5525926 69.0616103,49.3851852 68.8944516,49.3851852 L68.8944516,44.8651852 C69.0616103,45.0325926 69.2287691,45.0325926 69.5630866,45.0325926 C69.5630866,44.6977778 69.5630866,44.5303704 69.3959278,44.362963 C71.9033091,45.2 73.9092142,46.7066667 75.5808017,48.7155556 L75.5808017,48.7155556 Z M79.7597706,56.5837037 C80.0940881,56.7511111 79.9269293,57.2533333 79.5926118,57.2533333 C79.2582943,54.5748148 78.088183,51.7288889 76.5837542,49.3851852 C76.9180718,49.0503704 77.2523893,49.2177778 77.2523893,48.5481481 C76.750913,48.5481481 76.4165955,48.7155556 76.2494367,49.0503704 C74.5778492,46.7066667 71.9033091,44.5303704 68.8944516,43.8607407 C68.8944516,43.5259259 69.3959278,43.5259259 69.5630866,43.6933333 C69.5630866,43.0237037 68.7272928,42.6888889 68.5601341,43.3585185 C68.0586578,42.6888889 67.3900228,43.0237037 68.0586578,43.6933333 L67.7243403,43.8607407 C67.5571816,44.0281481 67.7243403,44.5303704 68.2258166,44.6977778 C68.0586578,44.5303704 68.0586578,44.0281481 68.3929753,44.1955556 L68.3929753,50.2222222 C68.0586578,50.0548148 67.7243403,50.2222222 67.3900228,50.557037 C67.7243403,50.8918519 68.0586578,50.8918519 68.3929753,50.8918519 L68.3929753,57.2533333 C68.0586578,57.2533333 67.8914991,56.9185185 68.2258166,56.7511111 C67.3900228,56.7511111 67.3900228,57.7555556 68.0586578,57.7555556 C67.8914991,57.922963 67.7243403,58.0903704 67.7243403,58.4251852 C68.0586578,58.4251852 68.2258166,58.2577778 68.3929753,58.0903704 C68.3929753,58.4251852 68.5601341,58.5925926 68.7272928,58.5925926 C68.8944516,58.76 69.3959278,58.4251852 69.3959278,57.922963 C69.2287691,58.2577778 68.7272928,58.0903704 68.7272928,57.7555556 L73.2405792,57.7555556 C73.0734204,58.0903704 73.2405792,58.4251852 73.5748967,58.76 C73.9092142,58.4251852 73.9092142,58.0903704 73.9092142,57.7555556 L78.9239768,57.7555556 C78.9239768,58.0903704 78.5896593,58.2577778 78.4225005,57.922963 C78.4225005,58.4251852 78.9239768,58.5925926 79.0911355,58.5925926 C79.2582943,58.5925926 79.4254531,58.4251852 79.2582943,58.0903704 C79.4254531,58.2577778 79.5926118,58.4251852 79.9269293,58.4251852 C79.9269293,58.0903704 79.7597706,57.922963 79.5926118,57.7555556 C79.9269293,57.7555556 80.0940881,57.5881481 80.0940881,57.4207407 C80.5955643,57.0859259 80.2612468,56.5837037 79.7597706,56.5837037 L79.7597706,56.5837037 Z M77.0852305,54.9096296 L77.5867068,54.5748148 L77.0852305,54.5748148 C77.2523893,54.4074074 77.419548,54.5748148 77.2523893,54.24 C77.0852305,53.9051852 76.9180718,53.9051852 76.750913,54.0725926 C76.5837542,54.24 75.2464842,54.0725926 75.2464842,53.0681481 C75.413643,53.2355556 75.5808017,53.402963 75.7479605,53.402963 L76.5837542,53.402963 C76.9180718,53.402963 77.0852305,53.2355556 77.0852305,52.9007407 C77.0852305,52.3985185 76.5837542,52.0637037 76.082278,51.7288889 L75.5808017,51.2266667 C75.413643,50.8918519 75.5808017,50.557037 75.0793255,49.8874074 C75.0793255,49.72 75.0793255,49.5525926 74.9121667,49.2177778 C74.5778492,49.72 74.5778492,50.557037 75.2464842,51.0592593 C75.7479605,51.7288889 76.750913,52.2311111 76.750913,52.5659259 C76.750913,52.7333333 76.5837542,52.7333333 76.4165955,52.9007407 L76.082278,52.9007407 C76.082278,52.9007407 75.9151192,52.9007407 75.9151192,52.7333333 C75.7479605,52.7333333 75.5808017,52.5659259 75.5808017,52.3985185 C75.0793255,51.8962963 74.745008,51.2266667 74.4106904,50.8918519 C73.9092142,50.2222222 74.0763729,49.5525926 74.2435317,49.2177778 C74.5778492,48.7155556 74.0763729,47.7111111 73.7420554,47.5437037 L73.7420554,47.0414815 L73.4077379,47.0414815 L73.4077379,47.2088889 C73.2405792,47.2088889 73.2405792,47.0414815 73.2405792,46.8740741 C73.0734204,47.0414815 73.0734204,47.0414815 72.9062617,47.0414815 L72.5719442,47.0414815 C72.4047854,47.2088889 72.4047854,47.2088889 72.2376267,47.2088889 C72.0704679,47.2088889 72.0704679,47.3762963 72.0704679,47.5437037 C72.0704679,47.7111111 72.0704679,47.8785185 72.2376267,47.8785185 L72.4047854,48.0459259 L72.5719442,47.8785185 C72.7391029,47.7111111 72.9062617,47.7111111 73.0734204,48.0459259 C73.0734204,48.2133333 73.0734204,48.2133333 72.9062617,48.2133333 L72.4047854,48.2133333 C72.2376267,48.2133333 72.2376267,48.3807407 72.2376267,48.5481481 C72.2376267,48.7155556 72.4047854,48.7155556 72.5719442,48.7155556 C72.9062617,48.7155556 73.2405792,48.5481481 73.2405792,48.882963 C73.2405792,49.3851852 72.5719442,49.3851852 72.4047854,50.0548148 C72.2376267,49.8874074 72.0704679,49.8874074 72.0704679,49.72 C71.9033091,49.5525926 71.7361504,49.3851852 71.5689916,49.0503704 C71.4018329,48.882963 71.2346741,48.7155556 71.0675154,48.7155556 C70.7331979,48.5481481 70.7331979,48.5481481 70.7331979,48.2133333 C70.7331979,48.0459259 70.9003566,47.8785185 70.7331979,47.7111111 L70.7331979,47.5437037 C70.7331979,47.3762963 70.5660391,47.3762963 70.3988804,47.3762963 L70.5660391,47.5437037 L70.3988804,47.7111111 L70.3988804,48.0459259 C70.3988804,47.8785185 70.2317216,47.7111111 70.2317216,47.7111111 L70.0645629,47.7111111 C70.0645629,47.5437037 69.8974041,47.3762963 69.7302453,47.5437037 L69.8974041,47.5437037 L69.8974041,47.7111111 C69.8974041,47.8785185 70.0645629,47.8785185 70.2317216,47.8785185 C69.8974041,47.7111111 69.8974041,47.8785185 69.8974041,48.0459259 L69.8974041,48.2133333 C69.7302453,48.2133333 69.7302453,48.3807407 69.8974041,48.5481481 L69.8974041,48.3807407 L70.0645629,48.3807407 C69.8974041,48.5481481 69.8974041,48.7155556 70.0645629,48.7155556 C69.8974041,48.882963 69.7302453,48.882963 69.7302453,48.5481481 C69.5630866,48.882963 69.8974041,49.2177778 70.2317216,49.0503704 L70.2317216,49.3851852 C70.2317216,49.3851852 70.2317216,49.5525926 70.3988804,49.5525926 L70.3988804,49.3851852 L70.5660391,49.5525926 C70.7331979,49.8874074 71.0675154,50.557037 71.7361504,50.7244444 C71.4018329,50.8918519 71.2346741,51.2266667 70.9003566,51.5614815 C70.7331979,51.7288889 70.3988804,51.8962963 70.2317216,51.8962963 L70.0645629,51.7288889 L69.8974041,51.7288889 C69.7302453,51.7288889 69.5630866,51.7288889 69.5630866,51.8962963 L69.7302453,51.8962963 L69.7302453,52.0637037 C69.7302453,52.0637037 69.7302453,52.2311111 70.0645629,52.2311111 L69.8974041,52.2311111 C69.7302453,52.2311111 69.7302453,52.0637037 69.5630866,52.2311111 L69.5630866,52.3985185 C69.3959278,52.3985185 69.2287691,52.7333333 69.3959278,52.9007407 C69.3959278,52.9007407 69.3959278,52.7333333 69.5630866,52.7333333 C69.7302453,52.9007407 69.7302453,52.9007407 70.0645629,52.5659259 C70.0645629,52.7333333 69.8974041,52.9007407 70.0645629,53.0681481 L70.2317216,53.0681481 C70.2317216,53.2355556 70.5660391,53.2355556 70.5660391,53.2355556 L70.3988804,53.0681481 L70.5660391,53.0681481 C70.7331979,52.9007407 70.5660391,52.7333333 70.5660391,52.7333333 C70.5660391,52.7333333 70.7331979,52.9007407 70.9003566,52.9007407 L71.0675154,52.7333333 C71.0675154,52.2311111 71.4018329,52.2311111 71.5689916,52.2311111 C71.5689916,52.0637037 71.7361504,51.8962963 71.9033091,51.8962963 L72.4047854,51.8962963 C72.4047854,51.7288889 72.5719442,51.5614815 72.7391029,51.3940741 C72.7391029,52.3985185 74.0763729,52.3985185 74.2435317,52.9007407 C73.9092142,52.7333333 73.4077379,52.5659259 73.0734204,52.7333333 C72.7391029,52.7333333 72.2376267,53.0681481 72.0704679,53.402963 C72.0704679,53.7377778 72.4047854,54.24 72.7391029,54.4074074 L71.9033091,54.4074074 C71.5689916,54.4074074 71.5689916,53.9051852 71.2346741,54.0725926 L71.0675154,54.0725926 C70.9003566,54.0725926 70.7331979,54.24 70.7331979,54.4074074 L70.9003566,54.24 C70.9003566,54.24 70.9003566,54.4074074 71.0675154,54.4074074 L71.2346741,54.4074074 C71.2346741,54.5748148 70.7331979,54.4074074 70.9003566,54.7422222 L70.9003566,54.9096296 C70.9003566,55.077037 70.9003566,55.077037 71.2346741,55.077037 C71.2346741,55.077037 71.0675154,55.077037 71.0675154,54.9096296 L71.2346741,54.9096296 L71.2346741,55.2444444 C71.2346741,55.4118519 71.4018329,55.5792593 71.5689916,55.4118519 C71.5689916,55.4118519 71.4018329,55.4118519 71.4018329,55.2444444 L71.5689916,55.2444444 L71.5689916,55.077037 L71.7361504,55.077037 C71.7361504,55.077037 71.9033091,55.2444444 72.0704679,55.2444444 C72.0704679,55.2444444 72.2376267,55.2444444 72.2376267,55.077037 C72.2376267,55.077037 72.4047854,55.077037 72.4047854,55.2444444 C72.4047854,55.077037 72.4047854,54.9096296 72.7391029,55.2444444 L72.9062617,55.077037 C72.9062617,55.077037 73.2405792,55.2444444 73.2405792,55.077037 C73.4077379,54.9096296 73.4077379,54.9096296 73.4077379,54.7422222 C73.2405792,54.4074074 73.2405792,54.4074074 73.0734204,54.24 C72.9062617,53.7377778 73.7420554,53.402963 74.0763729,53.5703704 C74.0763729,53.9051852 74.5778492,54.7422222 75.413643,54.9096296 C75.9151192,55.077037 76.082278,54.5748148 76.2494367,54.5748148 L76.2494367,55.2444444 C76.2494367,55.4118519 75.9151192,55.2444444 75.7479605,55.2444444 L75.5808017,55.2444444 C75.413643,55.2444444 75.2464842,55.4118519 75.2464842,55.5792593 C75.2464842,55.5792593 75.413643,55.4118519 75.5808017,55.4118519 C75.5808017,55.5792593 75.7479605,55.7466667 75.9151192,55.5792593 C75.7479605,55.5792593 75.5808017,55.9140741 75.7479605,55.9140741 L75.9151192,55.9140741 C75.9151192,56.0814815 75.9151192,56.0814815 76.082278,56.2488889 L76.082278,56.0814815 L76.2494367,56.0814815 L76.4165955,55.7466667 L76.4165955,56.0814815 L76.5837542,56.0814815 C76.5837542,56.2488889 76.750913,56.2488889 76.9180718,56.2488889 C76.9180718,56.2488889 76.750913,56.2488889 76.750913,56.0814815 L76.9180718,55.9140741 C77.0852305,55.5792593 76.750913,55.5792593 76.750913,55.4118519 C76.750913,55.2444444 76.9180718,55.2444444 77.0852305,54.9096296 C77.0852305,54.9096296 77.2523893,54.7422222 77.2523893,54.5748148 C77.2523893,54.9096296 77.0852305,54.9096296 77.0852305,54.9096296 L77.0852305,54.9096296 Z M62.8767364,63.4474074 C61.7066252,63.28 61.8737839,64.4518519 62.5424189,64.4518519 L62.7095777,64.4518519 C62.7095777,64.7866667 62.3752602,66.2933333 62.3752602,66.7955556 L60.0350376,63.4474074 C62.3752602,62.6103704 63.211054,61.7733333 62.8767364,63.4474074 L62.8767364,63.4474074 Z M62.0409427,69.3066667 L58.3634501,64.117037 C58.8649264,63.9496296 59.1992439,63.9496296 59.5335614,63.7822222 L62.2081014,67.8 L62.0409427,69.3066667 L62.0409427,69.3066667 Z M61.5394664,71.6503704 L56.5247038,64.117037 L57.8619738,64.117037 L62.0409427,70.1437037 L61.5394664,71.6503704 L61.5394664,71.6503704 Z M55.68891,64.2844444 L61.3723077,72.4874074 C58.3634501,71.1481481 55.3545925,68.4696296 55.68891,64.2844444 L55.68891,64.2844444 Z M64.2140065,63.6148148 L63.879689,63.6148148 C64.0468477,59.0948148 59.1992439,64.7866667 54.5187988,62.1081481 L54.1844813,62.7777778 C54.1844813,62.442963 54.0173225,62.1081481 53.5158462,62.1081481 C52.1785762,62.1081481 53.1815287,63.9496296 54.0173225,63.1125926 L53.683005,63.7822222 L54.0173225,63.9496296 C53.683005,67.6325926 56.3575451,72.1525926 61.0379902,73.4918519 C61.7066252,73.3244444 62.5424189,73.3244444 62.5424189,74.1614815 C62.5424189,75.1659259 61.3723077,74.9985185 61.3723077,74.4962963 C61.3723077,74.1614815 61.8737839,74.3288889 62.0409427,74.1614815 C62.0409427,73.8266667 61.8737839,73.6592593 61.5394664,73.6592593 C60.2021964,73.6592593 60.3693551,75.3333333 61.8737839,75.3333333 C62.3752602,75.3333333 63.3782127,74.9985185 63.3782127,73.8266667 C63.7125302,73.8266667 63.879689,73.8266667 64.0468477,73.4918519 L64.0468477,72.6548148 L63.7125302,72.6548148 L63.879689,64.4518519 C65.0498002,64.6192593 64.8826415,63.6148148 64.2140065,63.6148148 L64.2140065,63.6148148 Z M60.2021964,46.037037 L60.3693551,45.7022222 C60.3693551,45.7022222 60.0350376,45.8696296 60.3693551,45.5348148 C60.3693551,45.5348148 61.0379902,45.7022222 60.8708314,45.8696296 C60.8708314,45.8696296 60.8708314,45.7022222 60.7036727,45.7022222 L60.7036727,45.8696296 L60.3693551,46.3718519 C60.0350376,46.2044444 60.0350376,46.2044444 60.2021964,46.037037 L60.2021964,46.037037 Z M60.5365139,45.3674074 C60.5365139,45.5348148 60.3693551,45.5348148 60.5365139,45.3674074 L60.2021964,45.0325926 C60.2021964,45.3674074 60.5365139,45.3674074 60.5365139,45.3674074 L60.5365139,45.3674074 Z M60.7036727,45.5348148 L61.0379902,45.7022222 C60.8708314,45.7022222 60.8708314,45.8696296 60.8708314,45.8696296 C60.7036727,45.7022222 60.7036727,45.5348148 60.7036727,45.5348148 L60.7036727,45.5348148 Z M59.8678789,45.5348148 L63.3782127,46.8740741 C64.548324,46.8740741 65.0498002,46.5392593 65.0498002,46.2044444 C65.0498002,45.0325926 60.8708314,45.5348148 62.2081014,44.6977778 C63.7125302,44.6977778 63.7125302,43.3585185 64.8826415,43.1911111 C63.5453715,43.0237037 63.3782127,44.0281481 62.8767364,44.1955556 C63.211054,44.0281481 63.3782127,43.6933333 63.211054,43.5259259 C63.0438952,43.8607407 61.5394664,44.362963 61.5394664,45.0325926 C61.5394664,46.2044444 64.7154827,45.3674074 64.7154827,46.3718519 C64.7154827,47.3762963 61.8737839,46.5392593 61.0379902,46.7066667 C61.0379902,45.7022222 61.8737839,46.037037 61.2051489,45.3674074 C61.2051489,45.2 61.2051489,45.2 60.8708314,45.0325926 L60.2021964,45.0325926 C60.0350376,44.8651852 59.8678789,45.0325926 59.8678789,45.2 C59.8678789,45.2 59.5335614,45.5348148 59.8678789,45.5348148 C59.7007201,45.5348148 59.7007201,45.7022222 59.8678789,45.5348148 L59.8678789,45.8696296 C59.7007201,46.2044444 59.7007201,46.5392593 59.7007201,46.5392593 C59.3664026,46.2044444 59.1992439,46.3718519 59.3664026,45.8696296 C59.3664026,45.5348148 59.5335614,45.7022222 59.5335614,45.2 L59.1992439,45.2 C59.0320851,45.3674074 59.1992439,45.3674074 59.1992439,45.5348148 C59.0320851,45.8696296 59.3664026,45.2 58.8649264,45.2 C58.8649264,45.0325926 58.8649264,44.8651852 58.5306089,45.0325926 L58.6977676,45.0325926 L58.6977676,45.2 C58.6977676,45.3674074 59.0320851,45.3674074 59.0320851,45.3674074 C59.0320851,45.5348148 58.6977676,45.2 58.6977676,45.5348148 C58.6977676,45.7022222 58.5306089,45.7022222 58.6977676,45.8696296 L58.6977676,45.7022222 L59.0320851,45.7022222 C59.1992439,45.8696296 58.6977676,46.037037 59.1992439,46.037037 C59.1992439,46.3718519 58.6977676,46.2044444 58.8649264,46.037037 C58.5306089,46.3718519 58.8649264,46.5392593 59.1992439,46.3718519 C59.1992439,46.3718519 59.1992439,46.5392593 59.3664026,46.5392593 C59.3664026,46.5392593 59.3664026,46.7066667 59.5335614,46.7066667 C59.5335614,46.3718519 59.7007201,46.8740741 59.8678789,47.0414815 C59.7007201,47.2088889 58.0291326,47.5437037 58.0291326,47.3762963 C58.0291326,47.2088889 58.0291326,47.0414815 57.8619738,47.0414815 C57.1933388,46.8740741 57.5276563,47.0414815 57.6948151,47.0414815 C57.5276563,47.2088889 57.5276563,47.2088889 57.8619738,47.3762963 C57.8619738,47.3762963 57.8619738,47.5437037 57.6948151,47.3762963 C57.5276563,47.2088889 57.6948151,47.2088889 57.3604976,47.2088889 C57.1933388,47.2088889 57.0261801,47.3762963 57.0261801,47.5437037 C57.0261801,47.5437037 57.0261801,47.3762963 57.1933388,47.3762963 C57.3604976,47.5437037 57.3604976,47.7111111 57.6948151,47.5437037 C57.5276563,47.8785185 57.3604976,47.7111111 57.6948151,47.8785185 C57.5276563,48.0459259 57.6948151,48.2133333 57.8619738,48.2133333 C57.8619738,48.2133333 57.6948151,48.0459259 57.6948151,47.8785185 L57.8619738,47.8785185 C58.0291326,47.8785185 58.0291326,47.3762963 58.0291326,47.5437037 C58.0291326,48.0459259 58.6977676,47.5437037 58.5306089,47.5437037 L58.6977676,47.5437037 L58.6977676,47.8785185 L59.0320851,47.5437037 L59.3664026,47.5437037 L59.3664026,47.7111111 L59.3664026,47.5437037 C59.3664026,47.5437037 59.3664026,47.7111111 59.5335614,47.8785185 C59.5335614,47.3762963 60.3693551,47.3762963 60.0350376,47.5437037 C60.3693551,47.5437037 60.3693551,47.3762963 60.5365139,47.2088889 C60.7036727,47.2088889 60.8708314,47.2088889 60.8708314,47.0414815 L60.8708314,47.2088889 C61.2051489,47.2088889 61.5394664,46.8740741 61.5394664,46.8740741 C62.2081014,46.7066667 61.2051489,46.3718519 62.3752602,46.3718519 C62.5424189,46.3718519 62.7095777,46.3718519 62.7095777,46.2044444 C62.5424189,46.3718519 62.5424189,46.7066667 62.8767364,46.8740741 C63.0438952,46.8740741 63.211054,47.0414815 63.211054,47.0414815 L62.8767364,47.0414815 L62.2081014,46.7066667 C62.0409427,46.7066667 61.8737839,46.8740741 61.8737839,47.0414815 C62.2081014,46.7066667 62.0409427,47.0414815 62.2081014,47.0414815 L62.3752602,47.0414815 C62.3752602,47.2088889 62.0409427,47.0414815 62.0409427,47.3762963 C62.0409427,47.5437037 62.2081014,47.7111111 62.3752602,47.5437037 L62.3752602,47.3762963 C62.3752602,46.8740741 62.3752602,48.0459259 62.7095777,47.7111111 L62.7095777,47.5437037 C62.7095777,47.3762963 63.0438952,47.7111111 63.0438952,47.7111111 L63.3782127,47.3762963 C64.0468477,47.5437037 64.0468477,47.0414815 63.7125302,46.8740741 L63.211054,46.5392593 C63.3782127,46.5392593 63.5453715,46.7066667 63.879689,46.7066667 C64.3811652,46.7066667 63.879689,46.2044444 64.7154827,46.5392593 C64.8826415,46.5392593 64.8826415,46.8740741 64.7154827,47.0414815 C64.7154827,47.2088889 64.548324,47.0414815 64.3811652,47.0414815 L64.2140065,47.0414815 C64.0468477,47.0414815 64.0468477,47.2088889 64.0468477,47.3762963 L64.2140065,47.2088889 C64.2140065,47.3762963 64.3811652,47.5437037 64.548324,47.3762963 C64.3811652,47.3762963 64.2140065,47.5437037 64.3811652,47.7111111 L64.548324,48.0459259 L64.548324,47.8785185 C64.8826415,47.8785185 64.548324,47.7111111 64.7154827,47.5437037 C64.7154827,47.8785185 64.7154827,47.8785185 64.8826415,47.8785185 C64.8826415,48.0459259 65.0498002,48.0459259 65.216959,47.8785185 C65.216959,47.8785185 65.0498002,47.8785185 65.0498002,47.7111111 C65.3841178,47.3762963 65.0498002,47.5437037 65.0498002,47.2088889 C65.0498002,47.0414815 65.216959,47.2088889 65.216959,46.8740741 C65.216959,46.7066667 65.0498002,46.7066667 65.0498002,46.7066667 L65.0498002,46.3718519 C65.0498002,46.3718519 65.216959,46.2044444 65.0498002,46.037037 C65.0498002,46.037037 64.7154827,46.2044444 64.7154827,46.037037 C64.548324,47.2088889 63.211054,46.8740741 63.3782127,46.8740741 L59.8678789,45.5348148 Z M57.3604976,50.8918519 C57.5276563,50.557037 57.8619738,50.7244444 57.5276563,50.3896296 C57.6948151,50.3896296 57.6948151,50.3896296 57.6948151,50.2222222 C57.5276563,50.2222222 57.3604976,50.3896296 57.6948151,50.0548148 L58.1962913,50.2222222 C58.3634501,50.2222222 58.3634501,50.3896296 58.1962913,50.3896296 C58.1962913,50.3896296 58.1962913,50.2222222 58.0291326,50.2222222 L58.0291326,50.3896296 C57.6948151,50.3896296 57.6948151,50.3896296 57.8619738,50.557037 L57.8619738,50.7244444 C57.6948151,51.3940741 57.1933388,51.2266667 57.3604976,50.8918519 L57.3604976,50.8918519 Z M57.8619738,50.0548148 C57.8619738,50.2222222 57.6948151,50.2222222 57.5276563,50.2222222 L57.3604976,49.8874074 L57.8619738,50.0548148 L57.8619738,50.0548148 Z M58.0291326,50.2222222 C58.0291326,50.2222222 58.3634501,50.3896296 58.5306089,50.3896296 L58.0291326,50.557037 L58.0291326,50.2222222 L58.0291326,50.2222222 Z M56.3575451,51.8962963 C56.1903863,51.7288889 56.3575451,51.7288889 56.3575451,51.8962963 L56.3575451,51.8962963 Z M64.7154827,51.2266667 C64.7154827,49.72 59.7007201,51.5614815 59.7007201,50.3896296 C59.7007201,50.0548148 60.2021964,50.0548148 60.8708314,50.0548148 C61.3723077,50.7244444 64.2140065,49.8874074 65.0498002,50.0548148 C64.0468477,49.2177778 63.211054,50.0548148 62.2081014,49.8874074 C62.8767364,49.8874074 63.0438952,49.72 63.0438952,49.5525926 L61.0379902,49.72 C60.5365139,50.0548148 59.5335614,49.3851852 59.5335614,50.3896296 C59.5335614,51.5614815 62.3752602,50.8918519 63.3782127,50.8918519 C64.3811652,50.8918519 64.548324,51.0592593 64.548324,51.2266667 C64.548324,51.8962963 59.1992439,51.2266667 58.5306089,51.3940741 C58.6977676,51.2266667 58.8649264,50.8918519 58.8649264,50.557037 C59.1992439,50.3896296 59.1992439,50.2222222 58.8649264,50.0548148 C58.8649264,49.8874074 58.6977676,49.5525926 58.3634501,49.3851852 C58.0291326,49.2177778 57.6948151,49.3851852 57.8619738,49.3851852 L57.6948151,49.3851852 C57.3604976,49.0503704 57.3604976,49.3851852 57.3604976,49.72 C57.1933388,49.72 56.8590213,50.0548148 57.0261801,50.2222222 C56.8590213,50.557037 56.6918626,50.8918519 57.0261801,50.8918519 L57.0261801,51.3940741 C56.8590213,51.3940741 56.5247038,51.2266667 56.6918626,51.2266667 L56.5247038,51.2266667 C55.3545925,50.2222222 55.8560688,50.7244444 55.8560688,49.72 C55.8560688,49.3851852 55.68891,49.3851852 55.5217513,49.3851852 C55.68891,49.5525926 55.68891,49.5525926 55.5217513,49.72 L55.5217513,50.0548148 C55.5217513,49.8874074 55.3545925,49.5525926 55.1874338,49.72 C55.1874338,49.5525926 55.020275,49.3851852 54.8531163,49.5525926 C54.6859575,49.72 54.8531163,49.8874074 55.020275,49.8874074 C55.020275,49.8874074 55.1874338,50.0548148 55.020275,50.0548148 C54.5187988,49.8874074 54.5187988,50.3896296 54.6859575,50.557037 L54.6859575,50.3896296 L54.8531163,50.3896296 C54.8531163,50.3896296 55.020275,50.2222222 55.020275,50.3896296 C55.020275,50.3896296 55.1874338,50.3896296 55.020275,50.557037 C54.8531163,50.7244444 54.8531163,50.8918519 55.020275,50.8918519 C55.020275,51.2266667 54.5187988,51.2266667 54.5187988,50.8918519 C54.1844813,51.2266667 54.6859575,51.5614815 55.020275,51.3940741 C55.020275,51.3940741 55.020275,51.5614815 55.1874338,51.5614815 C55.1874338,51.7288889 55.1874338,51.7288889 55.3545925,51.7288889 L55.8560688,52.0637037 C56.0232276,52.2311111 56.1903863,52.3985185 56.3575451,52.2311111 C56.3575451,52.3985185 56.5247038,52.7333333 56.5247038,52.7333333 L55.68891,52.7333333 C54.8531163,53.0681481 54.8531163,52.7333333 54.8531163,52.3985185 L54.6859575,52.2311111 L54.5187988,52.2311111 C54.35164,52.0637037 54.1844813,52.0637037 54.1844813,52.2311111 C54.1844813,52.2311111 54.35164,52.2311111 54.35164,52.3985185 L54.35164,52.5659259 C54.1844813,52.9007407 54.8531163,52.9007407 54.6859575,52.9007407 L54.5187988,52.9007407 C54.35164,52.7333333 54.35164,52.5659259 54.1844813,52.7333333 L54.0173225,52.7333333 C53.8501638,52.7333333 53.683005,52.9007407 53.683005,53.0681481 C53.683005,53.0681481 53.683005,52.9007407 53.8501638,52.9007407 L53.8501638,53.0681481 C53.8501638,53.2355556 54.0173225,53.402963 54.35164,53.0681481 C54.1844813,53.2355556 54.0173225,53.402963 54.1844813,53.402963 C54.1844813,53.5703704 54.35164,53.7377778 54.5187988,53.7377778 C54.5187988,53.7377778 54.35164,53.5703704 54.35164,53.402963 L54.6859575,53.0681481 C54.6859575,53.2355556 54.6859575,53.402963 55.020275,53.402963 C55.1874338,53.402963 55.3545925,53.0681481 55.3545925,53.0681481 L55.5217513,53.0681481 L55.5217513,53.402963 C55.5217513,53.402963 55.8560688,53.2355556 55.8560688,53.0681481 L56.0232276,53.2355556 L56.5247038,53.2355556 L56.5247038,53.402963 L56.5247038,53.2355556 C56.5247038,53.2355556 56.5247038,53.402963 56.6918626,53.5703704 C56.6918626,53.0681481 57.0261801,53.2355556 57.3604976,53.0681481 C57.3604976,53.0681481 57.3604976,53.2355556 57.1933388,53.2355556 C57.8619738,53.402963 58.0291326,52.3985185 58.5306089,52.5659259 C59.5335614,52.7333333 58.8649264,51.7288889 60.3693551,51.8962963 C60.5365139,51.8962963 60.7036727,51.7288889 60.7036727,51.7288889 C60.5365139,51.8962963 60.5365139,52.3985185 60.8708314,52.3985185 C61.0379902,52.3985185 61.2051489,52.3985185 61.2051489,52.5659259 C61.2051489,52.5659259 61.0379902,52.5659259 60.8708314,52.7333333 C60.5365139,53.0681481 60.5365139,52.0637037 60.0350376,52.3985185 C59.8678789,52.3985185 59.7007201,52.5659259 59.7007201,52.7333333 C60.0350376,52.3985185 59.8678789,52.7333333 60.0350376,52.7333333 C60.0350376,52.7333333 60.2021964,52.5659259 60.2021964,52.7333333 C60.2021964,52.9007407 59.7007201,52.7333333 59.8678789,53.0681481 C59.8678789,53.2355556 60.0350376,53.402963 60.2021964,53.402963 L60.2021964,53.2355556 C60.2021964,53.7377778 60.3693551,53.7377778 60.5365139,53.5703704 C60.5365139,53.5703704 60.3693551,53.5703704 60.3693551,53.402963 L60.7036727,53.2355556 L61.0379902,53.402963 C61.2051489,53.402963 61.0379902,52.9007407 61.3723077,53.0681481 L61.5394664,53.0681481 C61.5394664,52.9007407 61.5394664,52.5659259 61.3723077,52.5659259 L61.2051489,52.2311111 C61.7066252,52.3985185 62.3752602,52.5659259 62.7095777,52.2311111 C63.0438952,52.0637037 63.211054,52.2311111 63.3782127,52.2311111 C63.3782127,52.2311111 63.5453715,52.2311111 63.5453715,52.3985185 L63.5453715,52.9007407 C63.5453715,53.0681481 63.211054,52.9007407 63.0438952,52.9007407 L62.8767364,52.9007407 C62.7095777,52.9007407 62.5424189,53.0681481 62.5424189,53.2355556 L62.7095777,53.0681481 C62.7095777,53.2355556 62.8767364,53.402963 63.0438952,53.2355556 C62.8767364,53.2355556 62.7095777,53.5703704 62.8767364,53.5703704 L63.211054,53.5703704 C63.211054,53.7377778 63.211054,53.7377778 63.3782127,53.7377778 L63.3782127,53.5703704 L63.5453715,53.5703704 L63.7125302,53.2355556 L63.7125302,53.5703704 L63.879689,53.5703704 C63.879689,53.7377778 64.0468477,53.7377778 64.2140065,53.7377778 C64.2140065,53.7377778 64.0468477,53.7377778 64.0468477,53.5703704 L64.0468477,53.402963 C64.0468477,53.0681481 63.879689,53.0681481 63.879689,53.0681481 C63.879689,52.9007407 64.2140065,53.0681481 64.2140065,52.7333333 C64.2140065,52.7333333 64.2140065,52.5659259 64.0468477,52.5659259 C64.0468477,52.5659259 64.2140065,52.5659259 64.2140065,52.3985185 C64.0468477,52.3985185 64.0468477,52.2311111 64.0468477,52.0637037 C64.0468477,52.0637037 64.2140065,51.8962963 64.2140065,51.7288889 C64.2140065,51.8962963 63.879689,51.8962963 63.879689,51.7288889 C63.879689,51.7288889 63.879689,51.5614815 63.7125302,51.5614815 C63.3782127,51.5614815 63.0438952,51.5614815 62.3752602,51.3940741 C63.879689,51.7288889 64.7154827,51.5614815 64.7154827,51.2266667 L64.7154827,51.2266667 Z M56.0232276,55.7466667 L56.1903863,55.4118519 C56.1903863,55.4118519 56.3575451,55.4118519 56.1903863,55.2444444 C56.1903863,55.2444444 55.8560688,55.4118519 56.1903863,55.077037 C56.3575451,54.9096296 57.0261801,55.4118519 56.6918626,55.4118519 C56.6918626,55.4118519 56.6918626,55.2444444 56.5247038,55.2444444 L56.5247038,55.4118519 C56.1903863,55.2444444 56.3575451,55.5792593 56.3575451,55.7466667 L56.0232276,55.7466667 L56.0232276,55.7466667 Z M56.5247038,54.9096296 C56.5247038,55.077037 56.3575451,55.077037 56.1903863,54.9096296 L56.0232276,54.5748148 C56.1903863,54.9096296 56.3575451,54.9096296 56.5247038,54.9096296 L56.5247038,54.9096296 Z M56.6918626,54.9096296 C56.6918626,54.9096296 57.0261801,55.077037 57.1933388,55.077037 C56.8590213,55.2444444 56.6918626,55.4118519 56.6918626,54.9096296 L56.6918626,54.9096296 Z M64.2140065,55.9140741 C64.2140065,54.4074074 58.5306089,56.4162963 58.5306089,55.077037 C58.5306089,54.7422222 59.7007201,54.9096296 60.3693551,54.9096296 C60.7036727,55.5792593 63.5453715,54.5748148 64.3811652,54.9096296 C63.5453715,54.24 62.7095777,54.9096296 61.7066252,54.7422222 C62.3752602,54.7422222 63.0438952,54.5748148 63.0438952,54.4074074 C62.5424189,54.7422222 61.3723077,54.24 60.7036727,54.5748148 C60.0350376,54.9096296 58.5306089,54.24 58.5306089,55.077037 C58.5306089,56.2488889 62.2081014,55.5792593 63.211054,55.5792593 C64.2140065,55.5792593 64.2140065,55.7466667 64.2140065,55.9140741 C64.0468477,56.2488889 63.211054,56.2488889 62.7095777,56.2488889 C61.8737839,56.2488889 58.3634501,55.7466667 57.1933388,56.2488889 C57.3604976,55.7466667 58.0291326,55.077037 57.3604976,55.077037 L57.1933388,54.7422222 C56.3575451,54.0725926 56.8590213,54.5748148 56.3575451,54.4074074 L56.1903863,54.4074074 L56.0232276,54.24 L56.0232276,54.5748148 C55.8560688,54.5748148 55.68891,54.9096296 55.68891,54.9096296 C55.8560688,55.4118519 55.5217513,55.4118519 55.68891,55.5792593 L55.68891,55.9140741 L55.5217513,55.9140741 C54.8531163,55.9140741 54.35164,55.2444444 54.35164,54.9096296 C54.35164,54.5748148 54.5187988,54.5748148 54.35164,54.24 C54.35164,54.0725926 54.1844813,54.0725926 54.0173225,54.0725926 C54.0173225,54.0725926 54.1844813,54.0725926 54.1844813,54.24 C54.0173225,54.4074074 54.0173225,54.4074074 54.1844813,54.5748148 L54.1844813,54.7422222 C54.1844813,54.9096296 54.1844813,54.4074074 53.8501638,54.4074074 C53.8501638,54.24 53.683005,54.24 53.5158462,54.4074074 L53.683005,54.4074074 C53.683005,54.5748148 53.683005,54.7422222 53.8501638,54.7422222 L53.8501638,54.9096296 C53.5158462,54.7422222 53.5158462,54.9096296 53.5158462,55.077037 C53.3486875,55.077037 53.3486875,55.2444444 53.5158462,55.4118519 L53.5158462,55.2444444 L53.8501638,55.2444444 C53.683005,55.4118519 53.683005,55.5792593 53.8501638,55.5792593 C53.8501638,55.9140741 53.3486875,55.7466667 53.5158462,55.5792593 C53.3486875,55.9140741 53.683005,56.2488889 54.0173225,56.0814815 C54.0173225,56.0814815 54.0173225,56.2488889 54.1844813,56.2488889 C54.1844813,56.2488889 54.35164,56.0814815 54.35164,56.2488889 C54.35164,56.4162963 54.35164,56.4162963 54.5187988,56.4162963 L54.5187988,56.2488889 C54.5187988,56.2488889 54.8531163,56.7511111 55.1874338,56.9185185 C55.3545925,56.9185185 55.3545925,56.9185185 55.5217513,56.7511111 C55.5217513,56.7511111 55.8560688,57.2533333 55.68891,57.2533333 L54.8531163,57.2533333 C54.6859575,57.4207407 54.1844813,57.5881481 54.0173225,57.2533333 C53.8501638,57.0859259 54.0173225,56.9185185 53.683005,56.9185185 C53.01437,56.7511111 53.3486875,56.9185185 53.3486875,57.0859259 L53.3486875,57.2533333 C53.1815287,57.5881481 53.8501638,57.5881481 53.683005,57.5881481 C53.1815287,57.5881481 53.1815287,57.2533333 53.01437,57.2533333 L52.8472112,57.2533333 C52.6800525,57.2533333 52.5128937,57.4207407 52.5128937,57.5881481 C52.5128937,57.5881481 52.5128937,57.4207407 52.6800525,57.4207407 C52.8472112,57.5881481 52.6800525,57.922963 53.1815287,57.5881481 C53.3486875,57.4207407 52.8472112,57.922963 53.01437,57.922963 L53.01437,58.0903704 C53.01437,58.2577778 53.1815287,58.4251852 53.3486875,58.4251852 C53.3486875,58.4251852 53.1815287,58.2577778 53.1815287,58.0903704 C53.5158462,58.2577778 53.3486875,57.922963 53.5158462,57.7555556 C53.5158462,58.2577778 54.1844813,57.922963 54.0173225,57.7555556 L54.1844813,57.7555556 L54.1844813,58.0903704 L54.5187988,57.922963 L55.020275,57.922963 C55.020275,58.2577778 55.020275,58.0903704 55.1874338,58.0903704 C55.1874338,58.0903704 55.1874338,58.2577778 55.3545925,58.4251852 C55.3545925,57.922963 56.0232276,58.2577778 56.3575451,57.922963 C56.5247038,57.922963 56.3575451,58.0903704 56.1903863,58.0903704 C56.3575451,58.0903704 56.5247038,58.0903704 56.5247038,57.922963 L57.0261801,57.7555556 C57.0261801,57.5881481 57.0261801,57.5881481 57.1933388,57.5881481 C57.0261801,57.7555556 57.5276563,57.4207407 57.5276563,57.4207407 C59.1992439,57.5881481 58.3634501,56.5837037 60.2021964,56.9185185 C60.3693551,56.9185185 60.3693551,56.9185185 60.3693551,56.7511111 C60.2021964,56.9185185 60.2021964,57.2533333 60.5365139,57.2533333 C60.8708314,57.2533333 60.8708314,57.4207407 60.8708314,57.4207407 L60.5365139,57.4207407 L59.8678789,57.0859259 C59.7007201,57.0859259 59.3664026,57.2533333 59.5335614,57.4207407 C59.7007201,57.0859259 59.7007201,57.4207407 59.7007201,57.4207407 C59.7007201,57.5881481 59.8678789,57.4207407 60.0350376,57.4207407 C60.0350376,57.5881481 59.5335614,57.4207407 59.7007201,57.7555556 C59.7007201,57.922963 59.8678789,58.0903704 60.0350376,58.0903704 C60.0350376,58.0903704 59.8678789,58.0903704 59.8678789,57.922963 L60.0350376,57.922963 L60.0350376,58.0903704 C60.0350376,58.4251852 60.2021964,58.4251852 60.3693551,58.4251852 C60.0350376,58.4251852 60.2021964,58.2577778 60.2021964,58.2577778 L60.2021964,58.0903704 L60.3693551,58.0903704 C60.3693551,58.2577778 60.5365139,58.2577778 60.7036727,58.2577778 L60.8708314,57.922963 C61.0379902,57.922963 61.3723077,58.0903704 61.5394664,57.922963 C61.5394664,57.7555556 61.5394664,57.5881481 61.3723077,57.4207407 L61.2051489,57.0859259 C61.7066252,57.2533333 62.2081014,57.4207407 62.7095777,57.0859259 C62.8767364,56.9185185 63.3782127,56.9185185 63.3782127,57.0859259 C63.211054,57.5881481 63.5453715,57.5881481 62.8767364,57.4207407 C62.7095777,57.4207407 62.3752602,57.5881481 62.3752602,57.7555556 L62.5424189,57.5881481 C62.5424189,57.7555556 62.7095777,57.922963 62.8767364,57.7555556 C63.0438952,57.5881481 62.5424189,58.0903704 62.7095777,58.0903704 L63.0438952,58.4251852 L63.0438952,58.2577778 L63.3782127,57.922963 C63.5453715,57.7555556 63.211054,58.2577778 63.3782127,58.2577778 C63.5453715,58.2577778 63.5453715,58.5925926 63.7125302,58.4251852 C63.7125302,58.4251852 63.5453715,58.4251852 63.5453715,58.2577778 L63.5453715,58.0903704 C63.5453715,57.7555556 63.3782127,57.7555556 63.3782127,57.7555556 C63.3782127,57.5881481 63.7125302,57.7555556 63.7125302,57.4207407 C63.7125302,57.2533333 63.5453715,57.2533333 63.5453715,57.2533333 C64.0468477,57.2533333 63.3782127,56.9185185 63.5453715,56.9185185 C63.5453715,56.9185185 63.7125302,56.7511111 63.7125302,56.5837037 C63.7125302,56.7511111 63.3782127,56.7511111 63.3782127,56.5837037 C63.3782127,56.5837037 63.3782127,56.4162963 63.211054,56.4162963 C62.8767364,56.4162963 62.7095777,56.4162963 62.0409427,56.2488889 C63.3782127,56.4162963 64.2140065,56.2488889 64.2140065,55.9140741 L64.2140065,55.9140741 Z M70.7331979,61.7733333 L70.7331979,62.2755556 L70.7331979,61.7733333 Z M70.9003566,62.2755556 C71.0675154,62.1081481 71.0675154,62.1081481 71.2346741,62.1081481 C71.2346741,62.1081481 71.2346741,61.9407407 71.0675154,61.9407407 C71.0675154,61.9407407 71.2346741,61.9407407 71.0675154,61.7733333 L70.9003566,61.7733333 L70.9003566,61.6059259 L71.0675154,61.6059259 L71.4018329,61.7733333 L71.4018329,62.1081481 C71.4018329,62.1081481 71.4018329,61.9407407 71.2346741,61.9407407 L71.2346741,62.1081481 L70.9003566,62.2755556 L70.9003566,62.6103704 L70.9003566,62.2755556 L70.9003566,62.2755556 Z M71.4018329,61.2711111 C71.4018329,61.4385185 71.2346741,61.4385185 71.0675154,61.4385185 L70.9003566,61.1037037 C71.0675154,61.1037037 71.4018329,61.2711111 71.4018329,61.2711111 L71.4018329,61.2711111 Z M71.5689916,61.4385185 C71.5689916,61.4385185 71.9033091,61.6059259 72.0704679,61.6059259 L71.7361504,61.7733333 C71.7361504,61.7733333 71.5689916,61.6059259 71.5689916,61.4385185 L71.5689916,61.4385185 Z M79.2582943,63.4474074 C79.2582943,63.4474074 79.4254531,63.28 79.4254531,63.1125926 C79.4254531,63.28 79.0911355,63.28 79.0911355,63.1125926 C79.0911355,63.1125926 79.0911355,62.9451852 78.9239768,62.9451852 C78.5896593,62.9451852 78.2553418,62.9451852 77.5867068,62.7777778 C80.0940881,62.6103704 79.4254531,61.6059259 77.9210243,61.6059259 C76.750913,61.6059259 73.5748967,61.9407407 73.5748967,61.4385185 C73.5748967,61.1037037 74.745008,61.2711111 75.413643,61.2711111 L75.5808017,61.4385185 C76.9180718,61.7733333 78.4225005,60.7688889 79.2582943,61.1037037 C78.088183,60.7688889 77.5867068,61.4385185 76.5837542,61.1037037 C77.2523893,61.1037037 77.9210243,60.9362963 77.9210243,60.7688889 C77.419548,61.1037037 76.2494367,60.6014815 75.5808017,60.9362963 L75.413643,60.9362963 C74.4106904,60.9362963 73.2405792,60.7688889 73.2405792,61.4385185 C73.2405792,62.6103704 76.9180718,61.9407407 77.7538655,61.9407407 C78.756818,61.9407407 78.9239768,62.1081481 78.9239768,62.2755556 C78.9239768,62.6103704 78.088183,62.6103704 77.419548,62.6103704 C76.5837542,62.6103704 73.0734204,62.1081481 71.9033091,62.6103704 C71.9033091,62.442963 72.4047854,61.9407407 72.2376267,61.7733333 C72.4047854,61.7733333 72.4047854,61.6059259 72.4047854,61.4385185 C72.4047854,61.4385185 72.2376267,61.2711111 72.0704679,61.2711111 L72.0704679,60.9362963 C72.0704679,60.9362963 71.9033091,60.7688889 71.7361504,60.7688889 C71.5689916,60.7688889 71.4018329,60.7688889 71.4018329,60.6014815 L71.2346741,60.6014815 C71.2346741,60.6014815 71.0675154,60.6014815 71.0675154,60.7688889 C71.0675154,60.7688889 70.9003566,60.6014815 70.7331979,60.6014815 L70.7331979,60.9362963 C70.5660391,60.9362963 70.3988804,61.2711111 70.3988804,61.2711111 C70.3988804,61.4385185 70.5660391,61.4385185 70.5660391,61.4385185 C70.3988804,61.6059259 70.3988804,61.9407407 70.2317216,61.9407407 C70.2317216,62.1081481 70.3988804,62.1081481 70.3988804,62.1081481 L70.3988804,62.442963 L69.8974041,62.442963 L69.2287691,61.9407407 C68.8944516,61.6059259 69.2287691,61.4385185 69.2287691,60.9362963 C69.2287691,60.6014815 69.0616103,60.6014815 68.8944516,60.6014815 C68.8944516,60.6014815 69.0616103,60.6014815 69.0616103,60.7688889 C69.0616103,60.7688889 69.0616103,60.9362963 68.8944516,60.9362963 L68.8944516,61.2711111 C68.7272928,60.9362963 68.7272928,60.9362963 68.5601341,60.9362963 C68.5601341,60.7688889 68.3929753,60.6014815 68.2258166,60.7688889 L68.3929753,60.7688889 L68.3929753,60.9362963 C68.3929753,61.1037037 68.7272928,61.1037037 68.7272928,61.1037037 C68.3929753,60.9362963 68.3929753,61.1037037 68.3929753,61.2711111 C68.2258166,61.2711111 68.2258166,61.4385185 68.3929753,61.6059259 L68.3929753,61.4385185 L68.7272928,61.4385185 C68.7272928,61.4385185 68.8944516,61.4385185 68.7272928,61.6059259 C68.5601341,61.7733333 68.5601341,61.9407407 68.7272928,61.9407407 C68.7272928,62.2755556 68.2258166,62.1081481 68.3929753,61.9407407 C68.2258166,62.2755556 68.5601341,62.6103704 68.8944516,62.442963 C68.8944516,62.442963 68.8944516,62.6103704 69.0616103,62.6103704 C69.0616103,62.6103704 69.0616103,62.7777778 69.2287691,62.7777778 L69.2287691,62.6103704 C69.2287691,62.6103704 69.5630866,63.1125926 69.8974041,63.28 C69.8974041,63.28 70.0645629,63.1125926 70.2317216,63.1125926 C70.2317216,63.28 70.2317216,63.28 70.3988804,63.28 C70.3988804,63.4474074 70.5660391,63.7822222 70.5660391,63.7822222 L69.8974041,63.7822222 C69.7302453,63.9496296 69.2287691,64.117037 69.0616103,63.9496296 C69.0616103,63.7822222 69.0616103,63.7822222 68.8944516,63.6148148 L68.7272928,63.4474074 L68.5601341,63.4474074 C68.5601341,63.4474074 68.2258166,63.28 68.2258166,63.4474074 C68.2258166,63.4474074 68.3929753,63.4474074 68.3929753,63.6148148 L68.3929753,63.7822222 C68.3929753,63.7822222 68.3929753,63.9496296 68.7272928,64.117037 L68.5601341,64.117037 C68.3929753,63.9496296 68.3929753,63.9496296 68.2258166,63.9496296 L68.0586578,63.9496296 C67.8914991,63.9496296 67.7243403,64.117037 67.7243403,64.2844444 C67.7243403,64.2844444 67.7243403,64.117037 67.8914991,64.117037 L67.8914991,64.2844444 C67.8914991,64.4518519 68.0586578,64.6192593 68.3929753,64.2844444 L68.2258166,64.4518519 C68.2258166,64.6192593 68.3929753,64.7866667 68.5601341,64.7866667 C68.5601341,64.7866667 68.3929753,64.6192593 68.3929753,64.4518519 L68.5601341,64.4518519 C68.7272928,64.4518519 68.7272928,64.117037 68.7272928,64.117037 C68.7272928,64.117037 68.7272928,64.4518519 68.8944516,64.2844444 C69.0616103,64.2844444 69.2287691,64.117037 69.0616103,63.9496296 L69.2287691,64.117037 C69.2287691,64.117037 69.3959278,64.117037 69.3959278,63.9496296 L69.3959278,64.2844444 C69.3959278,64.2844444 69.7302453,64.117037 69.7302453,63.9496296 L69.7302453,64.117037 L70.0645629,64.117037 L70.0645629,64.2844444 L70.0645629,64.117037 C70.0645629,64.117037 70.0645629,64.2844444 70.2317216,64.4518519 C70.2317216,63.9496296 70.5660391,64.117037 70.9003566,63.9496296 C70.9003566,63.9496296 70.9003566,64.117037 70.7331979,64.117037 C70.9003566,64.2844444 71.2346741,63.9496296 71.2346741,63.7822222 C71.2346741,63.7822222 71.4018329,63.7822222 71.5689916,63.6148148 C71.9033091,63.6148148 71.9033091,63.4474074 71.9033091,63.4474074 C73.5748967,63.6148148 72.7391029,62.6103704 74.5778492,62.9451852 C74.745008,62.9451852 74.745008,62.7777778 74.745008,62.7777778 C74.5778492,62.9451852 74.5778492,63.4474074 74.9121667,63.4474074 C75.0793255,63.4474074 75.2464842,63.4474074 75.2464842,63.6148148 L74.9121667,63.6148148 L74.2435317,63.28 L74.0763729,63.28 C73.9092142,63.28 73.7420554,63.4474074 73.7420554,63.6148148 L73.9092142,63.4474074 C73.9092142,63.4474074 73.9092142,63.6148148 74.0763729,63.6148148 L74.2435317,63.6148148 C74.2435317,63.7822222 73.7420554,63.6148148 73.9092142,63.9496296 L73.9092142,64.117037 C73.9092142,64.2844444 73.9092142,64.2844444 74.2435317,64.2844444 C74.2435317,64.2844444 74.0763729,64.2844444 74.0763729,64.117037 L74.0763729,64.2844444 C74.0763729,64.4518519 74.2435317,64.6192593 74.4106904,64.4518519 C74.4106904,64.4518519 74.2435317,64.4518519 74.2435317,64.2844444 L74.4106904,64.2844444 L74.4106904,64.117037 L74.5778492,64.117037 C74.5778492,64.117037 74.745008,64.2844444 74.9121667,64.2844444 L75.0793255,63.9496296 L75.7479605,63.9496296 C75.7479605,63.7822222 75.7479605,63.6148148 75.5808017,63.4474074 L75.413643,63.1125926 C75.5808017,63.28 75.7479605,63.28 76.082278,63.28 C76.5837542,63.28 76.750913,63.28 76.9180718,63.1125926 C77.2523893,62.9451852 77.419548,63.1125926 77.5867068,63.1125926 C77.5867068,63.1125926 77.7538655,63.1125926 77.5867068,63.28 L77.5867068,63.6148148 C77.5867068,63.7822222 77.2523893,63.6148148 77.2523893,63.6148148 L77.0852305,63.6148148 C76.5837542,63.7822222 76.5837542,63.9496296 76.5837542,64.117037 L76.5837542,63.9496296 C76.5837542,64.117037 76.750913,64.117037 76.9180718,64.117037 C76.750913,64.117037 76.5837542,64.2844444 76.750913,64.4518519 C76.750913,64.6192593 76.750913,64.6192593 76.9180718,64.6192593 L76.9180718,64.4518519 L77.0852305,64.4518519 L77.2523893,64.117037 C77.2523893,64.2844444 77.0852305,64.4518519 77.2523893,64.4518519 C77.419548,64.6192593 77.419548,64.6192593 77.5867068,64.6192593 C77.5867068,64.6192593 77.419548,64.6192593 77.419548,64.4518519 L77.5867068,64.2844444 C77.7538655,63.9496296 77.419548,63.9496296 77.419548,63.9496296 C77.419548,63.7822222 77.7538655,63.9496296 77.7538655,63.6148148 C77.7538655,63.4474074 77.5867068,63.4474074 77.5867068,63.4474074 L77.7538655,63.4474074 C79.0911355,63.7822222 79.2582943,63.6148148 79.2582943,63.4474074 L79.2582943,63.4474074 Z M71.5689916,66.962963 C71.4018329,66.962963 71.4018329,66.7955556 71.4018329,66.6281481 L71.5689916,66.962963 C71.7361504,66.7955556 71.7361504,66.962963 71.5689916,66.962963 L71.5689916,66.962963 Z M71.4018329,67.1303704 C71.2346741,66.962963 71.2346741,67.1303704 71.4018329,67.1303704 L71.0675154,67.1303704 L71.0675154,67.4651852 L70.9003566,67.6325926 C70.7331979,67.6325926 70.7331979,67.4651852 70.9003566,67.2977778 C70.9003566,67.2977778 70.9003566,67.1303704 71.0675154,67.1303704 L71.4018329,67.1303704 C71.2346741,66.962963 71.2346741,66.962963 71.0675154,66.962963 C71.0675154,66.962963 71.2346741,66.962963 71.0675154,66.7955556 L70.9003566,66.7955556 L70.9003566,66.6281481 L71.0675154,66.6281481 L71.4018329,66.7955556 L71.4018329,67.1303704 L71.4018329,67.1303704 Z M71.2346741,66.4607407 C71.2346741,66.6281481 71.0675154,66.6281481 70.9003566,66.4607407 C70.9003566,66.2933333 70.9003566,66.2933333 70.7331979,66.1259259 C70.9003566,66.4607407 71.2346741,66.4607407 71.2346741,66.4607407 L71.2346741,66.4607407 Z M74.4106904,66.6281481 C75.9151192,67.1303704 77.2523893,66.1259259 78.088183,66.4607407 L75.5808017,66.4607407 C76.2494367,66.4607407 76.750913,66.2933333 76.9180718,66.1259259 L74.745008,66.2933333 C74.0763729,66.2933333 73.4077379,66.2933333 73.4077379,66.7955556 C73.4077379,67.8 76.082278,67.2977778 76.9180718,67.2977778 C77.7538655,67.2977778 77.7538655,67.4651852 77.7538655,67.6325926 C77.7538655,67.8 76.750913,67.9674074 76.2494367,67.9674074 C75.413643,67.9674074 73.4077379,67.6325926 71.9033091,67.8 C72.0704679,67.6325926 72.2376267,67.2977778 72.0704679,67.1303704 C72.2376267,67.1303704 72.2376267,66.962963 72.2376267,66.7955556 C72.2376267,66.7955556 72.0704679,66.6281481 71.9033091,66.6281481 L71.9033091,66.2933333 C71.9033091,66.2933333 71.7361504,66.1259259 71.5689916,66.1259259 C71.4018329,66.1259259 71.4018329,66.1259259 71.2346741,65.9585185 L70.9003566,65.9585185 L70.7331979,65.7911111 L70.7331979,66.1259259 L70.3988804,66.4607407 C70.3988804,66.6281481 70.3988804,66.6281481 70.5660391,66.6281481 L70.2317216,67.1303704 C70.2317216,67.1303704 70.2317216,67.2977778 70.3988804,67.2977778 L70.3988804,67.6325926 L70.2317216,67.6325926 C70.0645629,67.6325926 69.8974041,67.6325926 69.7302453,67.4651852 C69.5630866,67.2977778 69.5630866,67.2977778 69.5630866,66.962963 C69.5630866,66.7955556 69.7302453,66.6281481 69.5630866,66.4607407 L69.5630866,66.2933333 C69.5630866,66.1259259 69.3959278,66.1259259 69.2287691,66.1259259 C69.2287691,66.1259259 69.3959278,66.1259259 69.3959278,66.2933333 L69.3959278,66.6281481 C69.3959278,66.4607407 69.2287691,66.2933333 69.2287691,66.2933333 C69.2287691,66.1259259 69.0616103,66.1259259 68.8944516,66.1259259 L69.0616103,66.1259259 L69.0616103,66.2933333 C69.0616103,66.4607407 69.2287691,66.4607407 69.2287691,66.4607407 C69.0616103,66.2933333 68.8944516,66.4607407 68.8944516,66.6281481 L68.8944516,66.7955556 C68.7272928,66.7955556 68.7272928,66.962963 68.8944516,67.1303704 L68.8944516,66.962963 L69.0616103,66.962963 C68.8944516,67.1303704 68.8944516,67.2977778 69.0616103,67.2977778 C69.0616103,67.6325926 68.7272928,67.4651852 68.7272928,67.2977778 C68.5601341,67.6325926 68.8944516,67.9674074 69.2287691,67.8 C69.2287691,67.8 69.2287691,67.9674074 69.3959278,67.9674074 C69.3959278,67.9674074 69.3959278,68.1348148 69.5630866,68.1348148 L69.5630866,67.9674074 C69.5630866,67.9674074 69.5630866,67.8 69.8974041,67.9674074 C69.8974041,67.9674074 69.8974041,68.1348148 70.0645629,68.1348148 L70.3988804,68.1348148 L70.3988804,68.637037 L69.8974041,68.637037 C69.7302453,68.8044444 69.2287691,68.9718519 69.0616103,68.637037 C69.0616103,68.637037 69.0616103,68.4696296 68.8944516,68.4696296 L68.7272928,68.3022222 L68.5601341,68.3022222 C68.5601341,68.1348148 68.2258166,68.1348148 68.2258166,68.3022222 C68.2258166,68.3022222 68.3929753,68.3022222 68.3929753,68.4696296 L68.3929753,68.637037 C68.3929753,68.637037 68.3929753,68.8044444 68.7272928,68.9718519 L68.5601341,68.9718519 C68.3929753,68.8044444 68.3929753,68.8044444 68.2258166,68.8044444 L68.0586578,68.8044444 C67.8914991,68.8044444 67.7243403,68.9718519 67.8914991,69.1392593 C67.8914991,69.1392593 67.8914991,68.9718519 68.0586578,68.9718519 C68.0586578,69.1392593 68.2258166,69.3066667 68.3929753,68.9718519 L68.2258166,69.3066667 C68.2258166,69.4740741 68.3929753,69.6414815 68.5601341,69.6414815 C68.5601341,69.6414815 68.3929753,69.4740741 68.3929753,69.3066667 L68.5601341,69.3066667 L68.7272928,68.9718519 C68.7272928,68.9718519 68.7272928,69.1392593 68.8944516,69.1392593 C69.0616103,69.1392593 69.2287691,68.9718519 69.0616103,68.8044444 L69.2287691,68.9718519 C69.2287691,68.9718519 69.3959278,68.9718519 69.3959278,68.8044444 L69.3959278,69.1392593 C69.3959278,69.1392593 69.7302453,68.9718519 69.7302453,68.8044444 L69.7302453,68.9718519 L70.0645629,68.9718519 L70.0645629,69.1392593 L70.0645629,68.9718519 C70.0645629,68.9718519 70.0645629,69.1392593 70.2317216,69.3066667 C70.2317216,68.8044444 70.5660391,68.9718519 70.9003566,68.8044444 C70.9003566,68.8044444 70.9003566,68.9718519 70.7331979,68.9718519 C71.0675154,69.1392593 71.4018329,68.8044444 71.4018329,68.4696296 L71.4018329,68.3022222 L71.4018329,68.4696296 C71.7361504,68.4696296 71.7361504,68.3022222 71.7361504,68.3022222 C72.5719442,68.3022222 71.9033091,67.4651852 73.2405792,67.8 C73.4077379,67.8 73.5748967,67.8 73.5748967,67.6325926 C73.4077379,67.8 73.4077379,68.3022222 73.7420554,68.3022222 C73.9092142,68.3022222 74.0763729,68.3022222 74.0763729,68.4696296 L73.7420554,68.4696296 L73.0734204,68.1348148 L72.9062617,68.1348148 C72.7391029,68.1348148 72.5719442,68.3022222 72.5719442,68.4696296 L72.7391029,68.3022222 C72.7391029,68.3022222 72.7391029,68.4696296 72.9062617,68.4696296 L73.0734204,68.4696296 C73.0734204,68.637037 72.7391029,68.4696296 72.7391029,68.8044444 L72.7391029,68.9718519 C72.7391029,69.1392593 72.7391029,69.1392593 73.0734204,69.1392593 C73.0734204,69.1392593 72.9062617,69.1392593 72.9062617,68.9718519 L72.9062617,69.1392593 C72.9062617,69.3066667 73.0734204,69.4740741 73.2405792,69.3066667 C73.2405792,69.3066667 73.0734204,69.3066667 73.0734204,69.1392593 L73.2405792,69.1392593 L73.2405792,68.9718519 C73.2405792,69.1392593 73.4077379,69.1392593 73.5748967,69.1392593 L73.7420554,68.8044444 L74.4106904,68.8044444 C74.4106904,68.637037 74.4106904,68.4696296 74.2435317,68.3022222 L74.0763729,67.9674074 C74.2435317,68.1348148 74.4106904,68.1348148 74.745008,68.1348148 C75.2464842,68.1348148 75.413643,68.1348148 75.7479605,67.9674074 L76.4165955,67.9674074 C76.4165955,67.9674074 76.5837542,67.9674074 76.4165955,68.1348148 L76.2494367,68.4696296 C76.2494367,68.637037 75.9151192,68.4696296 75.9151192,68.4696296 L75.7479605,68.4696296 C75.5808017,68.4696296 75.413643,68.637037 75.413643,68.8044444 L75.5808017,68.637037 C75.5808017,68.8044444 75.7479605,68.8044444 75.9151192,68.8044444 C75.7479605,68.8044444 75.5808017,68.9718519 75.7479605,69.1392593 L75.9151192,69.4740741 L75.9151192,69.3066667 L76.082278,69.3066667 C76.2494367,69.3066667 76.2494367,69.1392593 76.2494367,68.9718519 C76.082278,69.3066667 76.2494367,69.3066667 76.2494367,69.3066667 C76.2494367,69.4740741 76.4165955,69.4740741 76.5837542,69.4740741 C76.5837542,69.4740741 76.4165955,69.4740741 76.4165955,69.3066667 L76.5837542,69.1392593 C76.750913,68.8044444 76.5837542,68.8044444 76.5837542,68.8044444 C76.5837542,68.637037 76.9180718,68.8044444 76.9180718,68.4696296 L76.9180718,68.3022222 C76.9180718,68.3022222 77.0852305,68.3022222 77.0852305,68.1348148 C76.9180718,68.1348148 76.9180718,67.9674074 76.9180718,67.9674074 C76.9180718,67.9674074 77.0852305,67.8 77.0852305,67.6325926 C77.0852305,67.8 76.750913,67.8 76.750913,67.6325926 C76.750913,67.6325926 76.750913,67.4651852 76.5837542,67.4651852 C76.2494367,67.4651852 75.7479605,67.4651852 75.2464842,67.2977778 C75.9151192,67.2977778 76.9180718,67.1303704 76.9180718,66.7955556 C76.9180718,66.4607407 76.9180718,66.2933333 75.7479605,66.2933333 C74.745008,66.2933333 72.5719442,66.6281481 72.5719442,66.1259259 C73.5748967,66.6281481 73.9092142,66.6281481 74.4106904,66.6281481 L74.4106904,66.6281481 Z M70.3988804,71.9851852 C70.5660391,71.8177778 70.5660391,71.6503704 70.3988804,71.6503704 C70.3988804,71.6503704 70.5660391,71.6503704 70.3988804,71.482963 L70.2317216,71.482963 L70.2317216,71.3155556 L70.3988804,71.3155556 L70.7331979,71.482963 L70.7331979,71.9851852 L70.7331979,71.8177778 L70.3988804,71.9851852 L70.3988804,72.32 L70.3988804,71.9851852 L70.3988804,71.9851852 Z M70.7331979,71.1481481 C70.7331979,71.1481481 70.5660391,71.3155556 70.3988804,71.1481481 C70.3988804,71.1481481 70.3988804,70.9807407 70.2317216,70.8133333 C70.5660391,70.9807407 70.7331979,71.1481481 70.7331979,71.1481481 L70.7331979,71.1481481 Z M71.0675154,71.3155556 L71.4018329,71.482963 C71.2346741,71.482963 71.2346741,71.6503704 71.2346741,71.6503704 C71.0675154,71.482963 70.9003566,71.3155556 71.0675154,71.3155556 L71.0675154,71.3155556 Z M73.5748967,71.1481481 C75.0793255,71.6503704 76.4165955,70.6459259 77.2523893,70.9807407 L74.745008,70.9807407 C75.413643,70.9807407 75.9151192,70.8133333 76.082278,70.6459259 L73.9092142,70.8133333 L73.5748967,71.1481481 C73.2405792,71.1481481 72.7391029,71.3155556 72.7391029,71.6503704 C72.7391029,72.4874074 76.082278,71.8177778 76.082278,72.1525926 C76.082278,72.9896296 72.0704679,72.32 71.4018329,72.4874074 C71.5689916,72.1525926 71.9033091,71.8177778 71.7361504,71.6503704 C71.9033091,71.6503704 71.9033091,71.482963 71.9033091,71.482963 L71.5689916,71.3155556 L71.5689916,70.9807407 C71.5689916,70.9807407 71.4018329,70.8133333 71.2346741,70.8133333 C71.0675154,70.8133333 71.0675154,70.8133333 70.9003566,70.6459259 L70.5660391,70.6459259 L70.3988804,70.4785185 L70.3988804,70.8133333 L70.0645629,71.1481481 C70.0645629,71.3155556 70.0645629,71.3155556 70.2317216,71.3155556 C70.0645629,71.482963 70.0645629,71.6503704 69.8974041,71.6503704 L70.0645629,71.8177778 C70.0645629,72.1525926 69.8974041,72.4874074 70.0645629,72.6548148 L69.3959278,71.8177778 C69.2287691,71.6503704 69.2287691,71.6503704 69.2287691,71.482963 L69.2287691,70.8133333 C69.2287691,70.6459259 69.0616103,70.6459259 68.8944516,70.6459259 C68.8944516,70.6459259 69.0616103,70.6459259 69.0616103,70.8133333 L69.0616103,71.1481481 C69.0616103,70.9807407 68.8944516,70.8133333 68.8944516,70.8133333 C68.8944516,70.6459259 68.7272928,70.6459259 68.5601341,70.8133333 L68.7272928,70.8133333 L68.7272928,70.9807407 C68.7272928,71.1481481 68.8944516,71.1481481 68.8944516,71.1481481 C68.7272928,70.9807407 68.5601341,71.1481481 68.5601341,71.3155556 L68.5601341,71.482963 C68.5601341,71.482963 68.3929753,71.6503704 68.5601341,71.8177778 L68.5601341,71.6503704 L68.7272928,71.6503704 C68.5601341,71.8177778 68.5601341,71.9851852 68.7272928,71.9851852 C68.7272928,72.32 68.3929753,72.1525926 68.3929753,71.9851852 C68.2258166,72.32 68.5601341,72.4874074 68.8944516,72.32 C68.8944516,72.32 68.8944516,72.4874074 69.0616103,72.4874074 C69.0616103,72.4874074 69.0616103,72.6548148 69.2287691,72.6548148 L69.2287691,72.4874074 C69.2287691,72.4874074 69.2287691,72.9896296 69.5630866,73.157037 C69.5630866,73.3244444 69.8974041,73.4918519 70.0645629,73.4918519 C70.0645629,73.6592593 70.2317216,73.8266667 70.2317216,73.8266667 L69.5630866,73.8266667 L69.0616103,73.9940741 L68.7272928,73.9940741 C68.7272928,73.9940741 68.7272928,73.8266667 68.5601341,73.8266667 L68.3929753,73.6592593 L68.2258166,73.6592593 C68.2258166,73.6592593 68.0586578,73.4918519 67.8914991,73.6592593 C67.8914991,73.6592593 68.0586578,73.6592593 68.0586578,73.8266667 L68.0586578,73.9940741 C68.0586578,73.9940741 68.0586578,74.1614815 68.3929753,74.3288889 L68.2258166,74.3288889 C68.2258166,73.9940741 68.2258166,73.9940741 68.0586578,73.9940741 L67.8914991,73.9940741 C67.7243403,73.9940741 67.5571816,74.1614815 67.7243403,74.3288889 C67.7243403,74.3288889 67.7243403,74.1614815 67.8914991,74.1614815 L67.8914991,74.3288889 C67.8914991,74.4962963 68.0586578,74.6637037 68.2258166,74.3288889 C68.2258166,74.4962963 67.8914991,74.4962963 68.0586578,74.6637037 C68.0586578,74.8311111 68.2258166,74.9985185 68.3929753,74.9985185 C68.3929753,74.9985185 68.2258166,74.8311111 68.2258166,74.6637037 L68.3929753,74.6637037 L68.5601341,74.3288889 C68.5601341,74.3288889 68.5601341,74.4962963 68.7272928,74.4962963 L68.8944516,74.3288889 L69.0616103,74.4962963 C69.0616103,74.4962963 69.2287691,74.4962963 69.2287691,74.3288889 L69.2287691,74.6637037 L69.5630866,74.3288889 L69.5630866,74.4962963 L69.8974041,74.4962963 L69.8974041,74.6637037 L69.8974041,74.4962963 C69.8974041,74.4962963 69.8974041,74.6637037 70.0645629,74.8311111 C70.0645629,74.3288889 70.3988804,74.4962963 70.5660391,74.3288889 C70.5660391,74.3288889 70.5660391,74.4962963 70.3988804,74.4962963 C70.5660391,74.4962963 70.7331979,74.3288889 70.7331979,74.1614815 C70.7331979,74.1614815 70.9003566,73.9940741 71.0675154,73.3244444 L71.2346741,73.3244444 L72.0704679,72.9896296 C71.9033091,73.157037 71.9033091,73.3244444 71.9033091,73.4918519 L72.2376267,73.9940741 L71.9033091,73.9940741 L71.2346741,73.6592593 L71.0675154,73.6592593 C70.9003566,73.6592593 70.7331979,73.8266667 70.7331979,73.9940741 L70.9003566,73.8266667 C70.9003566,73.8266667 70.9003566,73.9940741 71.0675154,73.9940741 L71.2346741,73.9940741 C71.2346741,74.1614815 70.9003566,73.9940741 70.9003566,74.3288889 L70.9003566,74.4962963 C70.9003566,74.6637037 70.9003566,74.6637037 71.0675154,74.6637037 C71.0675154,74.6637037 70.9003566,74.6637037 71.0675154,74.4962963 L71.0675154,74.6637037 C71.0675154,74.8311111 71.2346741,74.8311111 71.4018329,74.8311111 L71.2346741,74.8311111 L71.4018329,74.8311111 L71.4018329,74.6637037 L71.5689916,74.8311111 L71.7361504,74.4962963 L72.2376267,74.4962963 C72.2376267,74.4962963 72.2376267,74.1614815 72.0704679,73.9940741 C71.9033091,73.9940741 72.2376267,73.3244444 71.7361504,72.9896296 C71.9033091,72.9896296 72.7391029,73.157037 72.9062617,72.9896296 C73.0734204,72.9896296 73.4077379,73.157037 73.4077379,73.3244444 L73.4077379,73.4918519 C73.2405792,73.6592593 73.2405792,73.6592593 73.0734204,73.6592593 L72.9062617,73.4918519 L72.7391029,73.4918519 C72.5719442,73.4918519 72.4047854,73.4918519 72.4047854,73.6592593 L72.5719442,73.6592593 L72.5719442,73.8266667 C72.4047854,73.8266667 72.2376267,73.8266667 72.2376267,73.9940741 L72.2376267,74.1614815 C72.2376267,74.1614815 72.0704679,74.3288889 72.2376267,74.4962963 L72.4047854,74.3288889 C72.4047854,74.3288889 72.5719442,74.1614815 72.7391029,74.3288889 C72.5719442,74.3288889 72.5719442,74.4962963 72.5719442,74.4962963 C72.5719442,74.4962963 72.5719442,74.6637037 72.7391029,74.8311111 L72.7391029,74.6637037 L72.9062617,74.6637037 C73.0734204,74.4962963 73.0734204,74.3288889 73.0734204,74.3288889 C73.0734204,74.3288889 73.2405792,74.4962963 73.4077379,74.3288889 L73.4077379,74.1614815 C73.4077379,74.1614815 73.5748967,74.3288889 73.5748967,74.1614815 C73.4077379,73.9940741 73.5748967,73.9940741 73.5748967,73.8266667 C73.5748967,73.8266667 73.7420554,73.8266667 73.9092142,73.6592593 C73.7420554,73.6592593 73.5748967,73.4918519 73.7420554,73.4918519 C73.9092142,73.4918519 74.0763729,73.3244444 73.9092142,73.157037 C73.7420554,72.9896296 73.2405792,72.9896296 73.2405792,72.8222222 C73.9092142,72.8222222 75.2464842,72.8222222 75.2464842,72.1525926 C75.2464842,71.3155556 71.9033091,72.1525926 71.9033091,71.6503704 C73.0734204,71.3155556 73.2405792,71.1481481 73.5748967,71.1481481 L73.5748967,71.1481481 Z M20.0840955,13.56 C20.0840955,12.3881481 18.5796667,12.3881481 18.5796667,13.56 C18.5796667,14.7318519 20.0840955,14.5644444 20.0840955,13.56 L20.0840955,13.56 Z M19.749778,11.3837037 C19.749778,10.3792593 18.0781905,10.3792593 18.0781905,11.3837037 C18.0781905,12.3881481 19.749778,12.5555556 19.749778,11.3837037 L19.749778,11.3837037 Z M20.2512543,10.5466667 C21.4213656,10.5466667 21.4213656,9.04 20.2512543,9.04 C19.081143,9.04 19.081143,10.5466667 20.2512543,10.5466667 L20.2512543,10.5466667 Z M22.2571593,10.3792593 C22.7586356,10.3792593 23.0929531,10.0444444 23.0929531,9.54222222 C23.0929531,8.37037037 21.5885243,8.37037037 21.5885243,9.54222222 C21.4213656,10.0444444 21.9228418,10.3792593 22.2571593,10.3792593 L22.2571593,10.3792593 Z M31.4508908,8.87259259 C32.2866845,9.70962963 33.2896371,8.53777778 32.621002,7.70074074 C31.952367,6.8637037 30.615097,8.20296296 31.4508908,8.87259259 L31.4508908,8.87259259 Z M31.283732,7.19851852 C32.1195258,6.36148148 30.9494145,5.35703704 30.1136207,6.02666667 C29.277827,6.6962963 30.4479383,8.03555556 31.283732,7.19851852 L31.283732,7.19851852 Z M29.1106682,6.8637037 C29.946462,6.02666667 28.7763507,5.02222222 27.9405569,5.69185185 C27.1047632,6.36148148 28.2748745,7.70074074 29.1106682,6.8637037 L29.1106682,6.8637037 Z M27.2719219,8.20296296 C27.6062394,7.86814815 27.6062394,7.36592593 27.2719219,7.03111111 C26.4361282,6.19407407 25.4331756,7.36592593 26.1018107,8.20296296 C26.6032869,8.37037037 26.9376044,8.37037037 27.2719219,8.20296296 L27.2719219,8.20296296 Z M22.2571593,7.03111111 L22.9257943,8.53777778 L23.7615881,7.53333333 C23.9287469,7.70074074 23.9287469,9.04 23.9287469,9.20740741 C23.9287469,9.87703704 24.4302231,10.2118519 24.9316994,10.2118519 C26.1018107,10.2118519 26.4361282,8.70518519 25.4331756,8.37037037 C25.2660169,8.20296296 24.2630644,7.36592593 24.2630644,7.19851852 L25.7674932,7.36592593 L25.2660169,5.85925926 L24.2630644,6.6962963 L24.2630644,5.18962963 L22.7586356,5.69185185 L23.7615881,6.8637037 L23.7615881,7.03111111 L22.2571593,7.03111111 L22.2571593,7.03111111 Z M31.4508908,9.54222222 C32.2866845,10.8814815 31.952367,11.0488889 31.1165733,9.87703704 L31.283732,11.7185185 C32.621002,9.87703704 31.7852083,12.722963 30.9494145,12.8903704 C29.4449857,13.2251852 29.7793032,10.8814815 30.7822558,11.8859259 C30.9494145,10.7140741 29.946462,10.7140741 29.4449857,11.2162963 C29.946462,10.0444444 29.7793032,9.54222222 28.7763507,8.87259259 C28.1077157,9.87703704 28.4420332,10.5466667 29.277827,11.2162963 C28.4420332,10.8814815 27.7733982,11.5511111 28.4420332,12.3881481 C28.609192,11.5511111 29.277827,11.7185185 29.4449857,12.3881481 C29.7793032,13.56 27.4390807,14.7318519 26.4361282,12.722963 C26.7704457,12.5555556 27.2719219,12.5555556 27.9405569,13.0577778 L27.4390807,11.3837037 C26.9376044,12.5555556 25.9346519,13.2251852 26.6032869,10.8814815 L24.4302231,11.8859259 C26.6032869,13.0577778 25.4331756,13.2251852 24.2630644,12.722963 L25.2660169,14.397037 C25.4331756,13.56 25.9346519,13.0577778 26.1018107,13.0577778 C26.9376044,15.0666667 24.4302231,15.9037037 23.7615881,14.7318519 C23.4272706,14.2296296 23.7615881,13.56 24.4302231,14.0622222 C24.2630644,12.8903704 23.4272706,12.8903704 23.0929531,13.7274074 C23.0929531,12.5555556 22.7586356,12.0533333 21.5885243,11.7185185 C21.2542068,12.8903704 21.7556831,13.3925926 22.7586356,13.8948148 C22.0900006,13.8948148 21.4213656,14.397037 22.2571593,15.2340741 C22.2571593,13.7274074 23.9287469,15.2340741 22.9257943,16.0711111 C22.2571593,16.5733333 19.749778,14.8992593 21.9228418,15.4014815 L20.7527305,13.8948148 C20.9198893,15.2340741 20.5855718,15.4014815 20.2512543,13.8948148 L19.2483018,14.7318519 C20.0840955,15.2340741 21.0870481,16.0711111 22.2571593,17.7451852 C24.7645406,16.2385185 29.277827,14.2296296 32.4538433,13.56 C32.1195258,11.7185185 32.2866845,10.3792593 32.621002,9.37481481 C32.7881608,9.54222222 31.4508908,9.54222222 31.4508908,9.54222222 L31.4508908,9.54222222 Z M33.9582721,20.2562963 C32.7881608,21.2607407 31.4508908,20.2562963 30.615097,19.0844444 C32.1195258,18.4148148 33.9582721,17.7451852 35.1283834,17.0755556 C34.1254308,18.7496296 34.9612246,19.4192593 33.9582721,20.2562963 L33.9582721,20.2562963 Z M33.6239546,31.8074074 C31.4508908,32.8118519 29.7793032,29.2962963 30.615097,28.4592593 C31.283732,27.7896296 31.4508908,27.2874074 31.1165733,26.6177778 C30.615097,25.6133333 29.6121445,26.1155556 28.7763507,26.4503704 C29.277827,25.6133333 29.277827,24.9437037 28.609192,24.9437037 C27.7733982,25.1111111 27.7733982,26.282963 27.2719219,26.1155556 C26.7704457,25.9481481 27.1047632,25.2785185 27.1047632,24.7762963 C27.1047632,23.7718519 29.1106682,23.2696296 31.952367,22.2651852 C32.4538433,22.0977778 32.9553196,21.9303704 33.2896371,22.2651852 C33.6239546,22.6 34.2925896,22.9348148 34.1254308,23.2696296 C33.9582721,23.7718519 32.9553196,22.7674074 32.4538433,23.2696296 C31.952367,23.6044444 32.4538433,24.1066667 33.2896371,24.4414815 C32.2866845,24.9437037 31.4508908,25.4459259 31.7852083,26.1155556 C32.1195258,26.9525926 32.621002,27.12 33.2896371,27.12 C33.7911133,27.12 34.1254308,27.7896296 34.6269071,28.6266667 C35.1283834,29.7985185 35.2955421,31.1377778 33.6239546,31.8074074 L33.6239546,31.8074074 Z M25.7674932,23.437037 C24.5973819,23.6044444 24.5973819,22.4325926 22.7586356,21.9303704 C24.2630644,21.5955556 25.9346519,20.9259259 27.4390807,20.4237037 C27.7733982,21.5955556 27.1047632,23.2696296 25.7674932,23.437037 L25.7674932,23.437037 Z M49.0025599,60.6014815 C49.3368774,59.7644444 47.6652899,58.9274074 47.4981311,57.5881481 C46.8294961,52.7333333 46.6623374,55.2444444 38.4715584,45.2 C38.8058759,45.2 39.8088285,45.0325926 40.4774635,45.8696296 C45.3250673,50.3896296 40.3103047,47.8785185 49.0025599,39.1733333 C48.1667661,39.5081481 46.9966549,39.6755556 46.1608611,40.1777778 C46.1608611,38.6711111 46.1608611,37.6666667 45.1579086,36.6622222 C45.4922261,34.8207407 45.1579086,32.3096296 40.811781,29.2962963 C42.9848448,29.7985185 44.4892736,31.8074074 45.9937023,30.3007407 C44.4892736,30.3007407 44.4892736,26.7851852 38.8058759,24.1066667 C40.811781,24.1066667 42.6505273,27.4548148 45.1579086,25.6133333 C42.817686,25.2785185 41.9818923,21.0933333 37.8029234,19.9214815 C39.3073522,20.0888889 40.811781,20.9259259 41.9818923,19.0844444 C40.4774635,19.4192593 39.6416697,18.08 38.1372409,17.9125926 C38.8058759,16.2385185 38.6387172,15.0666667 37.9700822,13.56 C36.7999709,13.56 35.7970184,14.0622222 34.9612246,14.7318519 C34.7940658,13.7274074 33.7911133,13.56 32.9553196,13.7274074 C32.9553196,14.2296296 33.2896371,14.8992593 32.7881608,14.8992593 C29.7793032,15.5688889 25.7674932,16.9081481 22.7586356,19.0844444 C22.4243181,19.4192593 21.9228418,18.7496296 21.7556831,18.4148148 C21.0870481,19.0844444 20.418413,19.7540741 20.9198893,20.4237037 C19.749778,20.5911111 18.7468255,20.7585185 17.5767142,21.5955556 C17.5767142,22.9348148 18.7468255,23.9392593 20.0840955,24.7762963 C18.0781905,27.12 20.418413,29.6311111 18.0781905,31.8074074 C21.2542068,31.9748148 20.7527305,27.4548148 22.4243181,26.9525926 C22.2571593,30.1333333 20.5855718,30.6355556 20.5855718,34.1511111 C20.5855718,35.8251852 21.7556831,38.0014815 20.7527305,39.0059259 C23.4272706,38.1688889 22.5914768,32.3096296 24.4302231,30.6355556 C24.7645406,31.64 24.5973819,32.6444444 24.2630644,33.6488889 C23.2601118,36.3274074 24.4302231,40.1777778 22.7586356,41.517037 C25.4331756,41.1822222 25.7674932,36.8296296 28.1077157,35.1555556 C26.2689694,39.1733333 24.0959056,47.5437037 21.2542068,51.8962963 C16.5737617,58.2577778 13.7320629,65.9585185 9.55309405,65.9585185 C7.71434776,65.9585185 6.20991898,64.7866667 6.20991898,62.442963 C6.20991898,55.2444444 18.412508,50.3896296 18.412508,42.6888889 C18.412508,38.6711111 14.0663804,36.16 10.2217291,39.5081481 C4.37117269,37.1644444 5.87560147,47.0414815 1.86379139,47.0414815 C3.36822017,47.8785185 6.04276023,46.2044444 7.38003026,44.0281481 C6.71139524,49.0503704 -0.476431162,47.7111111 0.0250450992,53.9051852 C1.02799762,49.2177778 17.4095555,48.0459259 11.7261579,40.5125926 C12.7291104,39.842963 13.3977454,39.6755556 14.0663804,39.6755556 C15.5708092,39.6755556 16.7409205,40.8474074 16.7409205,42.6888889 C16.7409205,49.72 -0.309272408,57.5881481 5.54128397,65.7911111 C4.7054902,66.1259259 3.86969643,65.9585185 3.03390266,65.1214815 C3.03390266,67.1303704 5.87560147,68.4696296 7.71434776,67.2977778 L9.05161779,67.6325926 C8.55014153,69.1392593 6.71139524,69.4740741 5.70844272,69.4740741 C8.71730029,71.8177778 13.8992216,68.637037 13.5649041,66.1259259 C17.2423967,63.1125926 19.4154605,56.4162963 18.9139843,60.2666667 C17.2423967,63.4474074 15.5708092,66.2933333 15.0693329,70.4785185 C14.7350154,73.9940741 12.8962691,77.1748148 10.3888878,77.1748148 C9.88741156,77.1748148 8.88445904,76.5051852 8.55014153,76.84 C7.71434776,77.5096296 8.55014153,78.3466667 8.55014153,78.8488889 C8.55014153,79.8533333 6.71139524,80.8577778 6.71139524,83.8711111 C6.71139524,85.3777778 7.54718901,86.8844444 7.2128715,87.8888889 C8.04866527,87.3866667 9.05161779,86.2148148 9.3859353,84.3733333 C10.2217291,88.5585185 7.71434776,88.3911111 9.55309405,91.9066667 C9.88741156,89.7303704 13.0634279,90.0651852 11.5589991,92.0740741 C11.2246816,92.4088889 10.5560466,95.0874074 13.0634279,94.92 C12.5619516,94.5851852 12.5619516,93.9155556 13.8992216,93.5807407 C15.5708092,93.2459259 16.0722854,94.082963 17.9110317,94.082963 C19.081143,94.082963 19.4154605,92.5762963 20.2512543,92.5762963 C21.0870481,92.5762963 21.2542068,93.2459259 20.9198893,93.9155556 C22.4243181,93.5807407 22.5914768,92.7437037 22.5914768,92.0740741 C22.5914768,91.4044444 21.9228418,90.7348148 22.4243181,90.5674074 C22.9257943,90.2325926 24.5973819,90.5674074 23.9287469,92.0740741 C25.9346519,91.7392593 25.6003344,88.2237037 22.9257943,88.7259259 C22.7586356,88.0562963 21.7556831,87.7214815 20.9198893,87.7214815 C18.9139843,87.7214815 19.2483018,89.2281481 17.9110317,89.2281481 C15.7379679,89.2281481 13.5649041,86.3822222 13.5649041,81.5274074 C13.5649041,77.1748148 20.9198893,78.8488889 25.7674932,70.9807407 C27.2719219,68.3022222 27.4390807,65.2888889 27.2719219,61.7733333 C30.9494145,63.9496296 31.4508908,69.3066667 28.2748745,70.8133333 C27.4390807,71.1481481 27.2719219,70.9807407 27.1047632,71.482963 C26.9376044,71.9851852 27.4390807,72.32 27.7733982,72.6548148 C28.7763507,73.157037 28.609192,74.1614815 28.9435095,75.1659259 C29.277827,76.3377778 30.2807795,77.8444444 31.6180495,79.0162963 C31.7852083,78.3466667 31.7852083,77.3422222 31.6180495,76.002963 C33.6239546,77.1748148 32.1195258,81.36 36.2984946,81.36 C35.4627009,80.8577778 35.6298596,79.8533333 36.1313359,79.6859259 C36.6328121,79.5185185 37.1342884,80.0207407 37.8029234,81.1925926 C38.6387172,82.3644444 38.4715584,82.197037 40.3103047,82.197037 C42.149051,82.197037 41.480416,81.5274074 42.3162098,81.5274074 C43.486321,81.5274074 43.3191623,82.8666667 42.817686,83.5362963 C44.4892736,83.0340741 44.9907498,81.6948148 44.4892736,80.3555556 C45.9937023,79.5185185 46.8294961,80.6903704 46.9966549,81.5274074 C48.5010836,80.0207407 46.9966549,78.1792593 45.6593848,78.0118519 C45.8265436,76.6725926 43.9877973,76.6725926 42.6505273,76.6725926 L40.811781,77.8444444 C38.3043997,77.8444444 32.9553196,73.157037 32.9553196,71.1481481 C32.9553196,69.1392593 37.8029234,67.8 37.8029234,64.7866667 C37.8029234,60.6014815 33.7911133,59.2622222 30.2807795,56.7511111 C31.6180495,55.2444444 34.9612246,55.077037 37.1342884,56.0814815 C37.3014472,54.9096296 38.1372409,55.2444444 38.4715584,53.2355556 C39.3073522,54.9096296 38.4715584,56.4162963 39.1401934,57.2533333 C39.8088285,56.4162963 41.1460985,56.4162963 40.9789397,54.4074074 C41.480416,55.7466667 40.3103047,57.7555556 41.480416,58.76 C41.6475747,57.0859259 43.486321,57.0859259 43.486321,58.4251852 C43.486321,59.9318519 41.480416,59.4296296 41.480416,61.1037037 C41.480416,61.9407407 42.4833685,62.2755556 42.4833685,62.6103704 C42.4833685,62.9451852 41.6475747,63.9496296 40.811781,63.28 C41.8147335,65.4562963 44.154956,64.7866667 44.9907498,62.9451852 C45.4922261,64.117037 45.1579086,65.4562963 44.154956,65.6237037 C45.1579086,66.1259259 47.1638136,65.6237037 46.8294961,62.9451852 C48.1667661,63.1125926 48.6682424,63.9496296 47.9996074,65.4562963 C49.0025599,65.1214815 49.8383537,64.6192593 49.8383537,63.7822222 C49.5040362,61.7733333 48.6682424,61.4385185 49.0025599,60.6014815 L49.0025599,60.6014815 Z M128.06865,80.1881481 C128.06865,76.84 133.083413,76.84 133.083413,80.1881481 C133.250572,83.7037037 128.06865,83.7037037 128.06865,80.1881481 L128.06865,80.1881481 Z M127.232857,80.1881481 C127.232857,82.0296296 128.737285,83.7037037 130.74319,83.7037037 C135.423636,83.7037037 135.423636,76.84 130.74319,76.84 C128.737285,76.84 127.232857,78.3466667 127.232857,80.1881481 L127.232857,80.1881481 Z M115.866061,86.5496296 C114.863109,86.3822222 114.194474,85.5451852 114.361633,85.042963 C114.361633,84.7081481 114.69595,84.3733333 114.863109,84.2059259 C115.364585,83.8711111 115.866061,83.8711111 116.367538,83.8711111 C118.70776,84.3733333 118.206284,86.8844444 115.866061,86.5496296 L115.866061,86.5496296 Z M114.361633,83.3688889 C113.860156,83.7037037 113.525839,84.2059259 113.525839,84.7081481 C113.35868,85.3777778 113.525839,86.0474074 114.027315,86.3822222 C115.531744,87.8888889 118.540601,87.5540741 118.70776,85.5451852 C119.209236,83.5362963 116.367538,82.197037 114.361633,83.3688889 L114.361633,83.3688889 Z M95.3055346,36.997037 C95.3055346,35.322963 98.3143922,34.6533333 98.1472335,36.3274074 C97.812916,38.0014815 95.3055346,38.5037037 95.3055346,36.997037 L95.3055346,36.997037 Z M95.3055346,34.9881481 C92.7981533,36.8296296 94.9712171,40.3451852 97.812916,38.3362963 C100.320297,36.16 97.9800747,32.9792593 95.3055346,34.9881481 Z M111.519934,81.6948148 C109.848346,81.6948148 109.848346,78.0118519 111.519934,78.0118519 C113.525839,78.0118519 113.35868,81.6948148 111.519934,81.6948148 L111.519934,81.6948148 Z M110.349822,77.677037 C108.845394,79.1837037 109.514029,82.3644444 111.687092,82.3644444 C115.698903,82.6992593 113.525839,74.4962963 110.349822,77.677037 L110.349822,77.677037 Z M94.1354234,53.2355556 C92.4638358,52.3985185 92.7981533,50.7244444 93.6339471,50.7244444 C94.8040584,50.3896296 96.1413284,51.2266667 96.3084872,52.0637037 C96.3084872,52.2311111 96.4756459,52.5659259 96.3084872,52.9007407 C96.1413284,53.2355556 95.8070109,53.402963 95.6398522,53.402963 C95.3055346,53.5703704 94.6368996,53.402963 94.1354234,53.2355556 L94.1354234,53.2355556 Z M93.4667884,49.72 C90.4579308,50.7244444 93.4667884,55.2444444 95.9741697,54.0725926 C98.8158685,53.0681481 96.8099634,48.882963 93.4667884,49.72 L93.4667884,49.72 Z M118.373443,65.4562963 C117.704808,66.2933333 116.869014,66.6281481 116.200379,66.1259259 C114.69595,64.9540741 116.701855,62.1081481 118.206284,63.28 C118.874919,63.7822222 119.042078,64.6192593 118.373443,65.4562963 L118.373443,65.4562963 Z M114.361633,71.9851852 C112.857204,73.8266667 110.68414,72.32 112.188569,70.4785185 C112.857204,69.6414815 113.692998,69.3066667 114.361633,69.8088889 C114.863109,70.3111111 114.863109,71.1481481 114.361633,71.9851852 L114.361633,71.9851852 Z M100.487456,36.6622222 L101.991885,32.1422222 L103.496314,32.8118519 C102.994837,32.9792593 102.493361,33.4814815 101.991885,33.9837037 C102.326202,34.1511111 102.994837,34.1511111 103.496314,33.8162963 L102.827679,35.4903704 C101.657567,33.4814815 100.988932,35.6577778 102.827679,36.6622222 C105.502219,38.1688889 105.000742,35.1555556 103.496314,35.8251852 C103.329155,34.3185185 105.000742,34.1511111 105.167901,35.4903704 C105.167901,34.1511111 105.669377,33.1466667 106.839489,32.8118519 C107.340965,34.1511111 107.006647,34.9881481 105.836536,35.9925926 C107.340965,35.322963 107.842441,36.997037 106.67233,37.4992593 C106.338012,35.9925926 103.663472,37.3318519 106.170854,38.8385185 C108.176759,40.0103704 109.514029,36.997037 107.173806,38.5037037 L108.343917,36.6622222 C108.343917,36.997037 108.511076,37.4992593 109.012552,37.8340741 C109.179711,37.3318519 109.34687,36.4948148 109.012552,35.9925926 L111.185616,37.3318519 C109.848346,37.4992593 109.012552,39.0059259 110.851299,38.3362963 L109.848346,40.0103704 C109.848346,39.3407407 109.681187,38.8385185 109.34687,38.5037037 C108.176759,40.5125926 111.185616,42.0192593 111.854251,41.0148148 C112.188569,40.5125926 111.687092,39.5081481 110.68414,39.842963 C110.68414,38.3362963 112.188569,38.1688889 112.522886,39.6755556 C112.857204,38.3362963 113.525839,37.6666667 114.69595,37.3318519 C115.030268,38.6711111 114.361633,39.5081481 113.191521,40.1777778 C114.69595,39.6755556 115.030268,41.3496296 113.860156,41.8518519 C113.692998,41.0148148 112.690045,40.68 112.355728,41.3496296 C111.854251,42.1866667 114.194474,44.1955556 115.698903,42.8562963 C115.364585,42.5214815 114.69595,42.3540741 114.361633,42.3540741 L115.531744,41.0148148 C115.531744,41.517037 115.866061,42.1866667 116.200379,42.3540741 C116.367538,41.6844444 116.534696,41.0148148 116.367538,40.5125926 L117.704808,41.6844444 C117.704808,41.6844444 115.698903,43.8607407 114.528791,45.2 C114.863109,45.0325926 100.487456,36.6622222 100.487456,36.6622222 L100.487456,36.6622222 Z M117.203331,55.9140741 C117.203331,53.2355556 121.883776,56.0814815 120.04503,57.7555556 C119.209236,58.5925926 117.203331,57.5881481 117.203331,55.9140741 L117.203331,55.9140741 Z M123.388205,84.3733333 C123.722523,82.8666667 125.895587,82.197037 126.564222,83.2014815 C127.901492,85.2103704 123.053888,87.0518519 123.388205,84.3733333 L123.388205,84.3733333 Z M94.1354234,41.517037 C94.1354234,43.8607407 91.6280421,43.3585185 92.1295183,41.517037 C92.1295183,39.5081481 94.1354234,39.5081481 94.1354234,41.517037 L94.1354234,41.517037 Z M103.161996,22.9348148 C103.663472,21.9303704 103.161996,20.5911111 104.833584,20.5911111 C105.669377,20.5911111 106.338012,21.4281481 107.340965,21.762963 C105.836536,21.762963 104.332107,22.0977778 103.161996,22.9348148 L103.161996,22.9348148 Z M129.573079,46.2044444 C130.74319,49.2177778 132.916254,50.3896296 134.587842,49.5525926 C130.74319,49.0503704 133.752048,42.5214815 129.071603,42.5214815 C127.400015,42.5214815 127.734333,41.3496296 125.059793,41.3496296 C123.053888,41.3496296 119.376395,43.3585185 119.376395,47.5437037 C119.376395,56.4162963 129.740238,57.2533333 129.740238,65.1214815 C129.740238,67.4651852 128.06865,68.9718519 126.062745,68.9718519 C123.221046,68.9718519 122.71957,65.1214815 117.704808,58.4251852 C119.376395,59.597037 121.3823,58.5925926 121.3823,56.9185185 C121.3823,53.0681481 115.197426,52.9007407 116.701855,56.9185185 C111.018457,49.5525926 111.854251,49.2177778 114.528791,45.5348148 L115.030268,45.7022222 C115.531744,45.2 118.206284,42.5214815 118.540601,41.8518519 L119.042078,41.3496296 L117.704808,40.5125926 L118.540601,38.3362963 C118.874919,39.842963 119.710713,40.68 120.546506,40.3451852 C119.877871,38.8385185 121.215141,36.8296296 120.379348,33.1466667 C121.215141,34.6533333 122.385253,35.1555556 123.388205,34.9881481 C121.215141,32.9792593 124.05684,30.1333333 121.047983,25.7807407 C122.050935,26.1155556 122.552411,25.9481481 123.053888,25.4459259 C120.379348,25.1111111 121.549459,21.5955556 116.869014,20.4237037 C118.039125,20.2562963 118.70776,19.4192593 118.540601,18.917037 C117.203331,19.9214815 116.200379,17.242963 112.02141,17.4103704 C111.687092,15.9037037 110.349822,14.2296296 108.678235,13.3925926 C109.012552,14.7318519 108.678235,15.5688889 108.343917,16.5733333 L94.8040584,3.34814815 C89.7892958,-1.33925926 107.006647,19.9214815 105.669377,18.2474074 C103.329155,19.0844444 101.991885,19.0844444 101.991885,20.5911111 C99.818821,21.762963 97.9800747,22.9348148 97.1442809,23.7718519 C96.3084872,24.4414815 95.8070109,24.6088889 96.4756459,25.9481481 C96.8099634,26.4503704 95.9741697,27.7896296 97.6457572,26.9525926 C102.159044,24.2740741 102.827679,25.9481481 99.6516622,27.12 C98.8158685,27.4548148 97.9800747,28.1244444 98.1472335,28.4592593 L98.9830272,28.7940741 C98.9830272,29.1288889 99.3173447,29.6311111 99.6516622,29.6311111 C99.9859797,29.6311111 100.487456,28.9614815 100.821774,29.1288889 C101.156091,29.2962963 100.654615,30.802963 100.320297,31.3051852 C101.657567,31.1377778 102.493361,29.7985185 102.493361,28.9614815 C102.493361,28.1244444 102.827679,27.6222222 102.994837,27.4548148 C103.161996,27.2874074 103.496314,28.6266667 103.161996,29.1288889 C103.830631,28.9614815 104.666425,27.957037 104.499266,26.4503704 C106.170854,24.9437037 106.003695,27.2874074 108.0096,27.2874074 C110.851299,27.2874074 112.690045,24.2740741 111.352775,22.6 C112.188569,23.2696296 112.522886,24.2740741 112.522886,25.1111111 C112.522886,28.4592593 107.006647,29.7985185 104.164949,32.477037 L101.490409,31.3051852 C101.156091,32.6444444 100.153139,35.322963 99.9859797,36.3274074 L99.818821,36.8296296 L99.9859797,37.1644444 C98.481551,39.1733333 97.1442809,41.6844444 96.8099634,44.1955556 C96.1413284,43.5259259 95.4726934,42.8562963 94.9712171,42.5214815 C94.9712171,42.3540741 95.1383759,42.0192593 95.1383759,41.6844444 C95.3055346,39.6755556 93.4667884,38.3362963 91.9623596,39.6755556 C91.6280421,40.0103704 91.7952008,40.0103704 91.4608833,39.6755556 C88.7863433,37.6666667 87.9505495,35.8251852 85.2760094,37.6666667 C83.4372631,39.3407407 83.4372631,38.3362963 85.2760094,40.5125926 C85.4431682,40.3451852 85.6103269,40.1777778 85.7774857,40.1777778 C87.2819145,38.6711111 88.1177082,41.517037 92.1295183,45.8696296 C91.1265658,46.2044444 90.6250895,46.5392593 88.284867,46.3718519 C87.4490732,46.3718519 87.2819145,46.037037 86.7804382,47.0414815 C84.7745332,50.2222222 86.1118032,47.7111111 89.622137,56.0814815 C90.7922483,58.9274074 93.6339471,58.2577778 95.9741697,60.6014815 L96.1413284,59.2622222 C95.4726934,58.5925926 92.4638358,57.922963 94.1354234,57.922963 C94.6368996,57.922963 96.1413284,58.4251852 97.3114397,58.9274074 C96.9771222,57.5881481 95.8070109,56.4162963 95.1383759,55.5792593 C94.1354234,55.2444444 93.2996296,55.2444444 92.9653121,55.5792593 C92.9653121,56.5837037 91.6280421,56.2488889 91.9623596,55.5792593 C92.1295183,55.2444444 92.6309946,55.077037 92.4638358,54.4074074 C92.2966771,53.7377778 91.4608833,53.5703704 90.9594071,53.5703704 C85.7774857,46.3718519 89.9564545,49.5525926 97.1442809,49.5525926 C98.1472335,59.0948148 106.003695,54.7422222 108.343917,60.9362963 C99.4845035,60.7688889 97.9800747,64.2844444 97.9800747,67.4651852 C97.9800747,71.1481481 101.156091,70.9807407 101.156091,73.8266667 C101.156091,76.1703704 93.6339471,77.3422222 91.4608833,77.677037 C89.622137,78.0118519 88.4520257,78.3466667 87.4490732,79.1837037 C86.4461207,80.1881481 85.6103269,80.8577778 83.9387394,82.6992593 C83.9387394,82.6992593 84.6073744,82.8666667 85.4431682,82.8666667 L86.7804382,81.36 C87.1147557,80.8577778 87.4490732,80.3555556 87.7833907,80.3555556 C88.1177082,80.3555556 87.9505495,80.8577778 87.616232,81.5274074 L86.4461207,83.2014815 C90.9594071,83.5362963 91.1265658,81.8622222 91.1265658,81.1925926 C91.1265658,80.522963 89.9564545,80.0207407 90.6250895,79.6859259 C91.2937246,79.1837037 91.7952008,79.5185185 92.1295183,80.1881481 C92.6309946,80.8577778 92.7981533,81.36 93.9682646,80.8577778 C93.9682646,80.8577778 103.496314,76.84 104.833584,76.3377778 C106.003695,75.8355556 105.669377,75.3333333 105.000742,74.8311111 C104.332107,74.1614815 104.164949,73.3244444 104.164949,72.32 C104.164949,69.4740741 105.836536,68.4696296 108.845394,68.637037 C108.176759,74.8311111 115.698903,79.0162963 117.203331,79.0162963 C118.039125,79.0162963 119.042078,78.3466667 119.209236,81.0251852 C119.376395,85.2103704 120.546506,87.8888889 116.869014,90.4 C115.364585,91.4044444 114.194474,94.4177778 113.525839,95.0874074 C114.194474,95.5896296 114.863109,95.5896296 115.197426,94.082963 C115.698903,92.7437037 116.200379,92.0740741 116.701855,91.7392593 C116.200379,93.2459259 115.698903,95.0874074 115.531744,95.757037 C117.203331,96.0918519 120.212189,94.4177778 120.212189,93.2459259 C120.212189,91.9066667 119.209236,92.0740741 119.209236,91.4044444 C119.209236,90.2325926 121.215141,90.4 121.3823,91.4044444 C122.218094,90.9022222 122.71957,90.2325926 122.71957,88.3911111 L124.223999,87.3866667 C125.728428,87.5540741 127.400015,86.0474074 127.400015,84.5407407 C127.400015,81.8622222 123.053888,82.0296296 122.385253,84.7081481 C122.218094,82.3644444 122.050935,80.0207407 122.050935,79.0162963 C122.218094,77.5096296 122.218094,77.0074074 121.716618,76.84 C121.215141,76.6725926 120.713665,77.5096296 120.212189,77.5096296 C119.710713,77.5096296 117.537649,75.6681481 117.537649,73.6592593 C117.537649,71.6503704 119.543554,69.1392593 119.543554,66.4607407 C119.543554,65.6237037 120.04503,65.1214815 120.379348,65.9585185 C120.880824,66.962963 121.3823,67.9674074 122.218094,69.1392593 C121.549459,72.4874074 125.39411,75.8355556 128.402968,73.3244444 C126.898539,73.4918519 125.895587,72.1525926 125.226952,70.9807407 L126.564222,70.9807407 C127.734333,72.32 131.077508,72.32 131.746143,68.9718519 C131.077508,69.6414815 130.074555,70.3111111 129.071603,70.1437037 C130.408873,69.1392593 130.910349,67.6325926 130.910349,65.7911111 C130.910349,57.4207407 120.546506,56.2488889 120.546506,48.7155556 C120.546506,45.3674074 124.223999,42.8562963 126.397063,44.5303704 C125.728428,45.2 125.39411,46.2044444 125.39411,47.5437037 C125.728428,53.5703704 135.590794,53.402963 135.757953,56.2488889 C137.429541,50.8918519 129.907397,52.2311111 129.573079,46.2044444 L129.573079,46.2044444 Z" id="Shape"></path>
            </g>
        </g>
    </g>
</svg>