<?xml version="1.0" encoding="UTF-8"?>
<svg width="356px" height="112px" viewBox="0 0 356 112" version="1.1" xmlns="http://www.w3.org/2000/svg" xmlns:xlink="http://www.w3.org/1999/xlink">
    <!-- Generator: Sketch 50.2 (55047) - http://www.bohemiancoding.com/sketch -->
    <title>google</title>
    <desc>Created with Sketch.</desc>
    <defs></defs>
    <g id="Page-1" stroke="none" stroke-width="1" fill="none" fill-rule="evenodd">
        <g id="google" fill="#000000" fill-rule="nonzero">
            <path d="M44.7019667,40.0548907 L85.242195,40.0548907 C85.6828497,42.2068018 85.8786962,44.7988765 85.8786962,47.5865796 C85.8786962,56.5854805 83.3816531,67.7851997 75.4498693,75.7081451 C67.7139321,83.7289046 57.8236831,88.0327268 44.7019667,88.0327268 C20.416999,88.0327268 0,68.2742704 0,44.0163634 C0,19.7584565 20.416999,0 44.7019667,0 C58.1174529,0 67.7139321,5.28196361 74.8623298,12.2267676 L66.3919681,20.6876908 C61.2509971,15.8458908 54.2494843,12.0800464 44.7019667,12.0800464 C26.9778572,12.0800464 13.1217164,26.360911 13.1217164,44.0652705 C13.1217164,61.76963 26.9778572,76.0504946 44.7019667,76.0504946 C56.1589878,76.0504946 62.719846,71.4532299 66.930546,67.2472219 C70.35786,63.7748199 72.6100949,58.8352058 73.4914042,52.08603 L44.7019667,52.08603 L44.7019667,40.0548907 Z M121.571723,29.3442423 C137.288406,29.3442423 150.116353,41.2775675 150.116353,57.7592502 C150.116353,74.1431188 137.288406,86.1742582 121.571723,86.1742582 C105.855041,86.1742582 93.0270939,74.0942117 93.0270939,57.7592502 C93.0270939,41.2775675 105.855041,29.3442423 121.571723,29.3442423 Z M262.336405,35.7021614 L262.336405,30.8114544 L274.185119,30.8114544 L274.185119,81.919343 C274.185119,102.900476 261.797827,111.508121 247.1583,111.508121 C233.351121,111.508121 225.076606,102.264684 221.943061,94.7329955 L232.812543,90.233545 C234.771008,94.8797167 239.520286,100.357309 247.1583,100.357309 C256.509971,100.357309 262.336405,94.5373672 262.336405,83.6799976 L262.336405,79.7185249 L261.89575,79.7185249 C259.104937,83.1420198 253.719158,86.1742582 246.913492,86.1742582 C232.71462,86.1742582 220.327328,73.7029552 220.327328,57.7592502 C220.327328,41.7177311 232.71462,29.3442423 246.913492,29.3442423 C253.719158,29.3442423 259.104937,32.3764806 261.89575,35.7021614 L262.336405,35.7021614 Z M185.22184,29.3442423 C200.938523,29.3442423 213.76647,41.2775675 213.76647,57.7592502 C213.76647,74.1431188 200.938523,86.1742582 185.22184,86.1742582 C169.505157,86.1742582 156.677211,74.0942117 156.677211,57.7592502 C156.677211,41.2775675 169.505157,29.3442423 185.22184,29.3442423 Z M283.977445,4.89070705 L296.266813,4.89070705 L296.266813,90.8204298 L283.977445,90.8204298 L283.977445,4.89070705 Z M331.763994,74.974539 C338.129006,74.974539 342.535552,71.8444865 345.76702,67.1494077 L355.461422,73.605141 C352.327878,78.2024057 344.787787,86.1742582 331.763994,86.1742582 C315.606657,86.1742582 303.562096,73.7029552 303.562096,57.7592502 C303.562096,40.8374038 315.753541,29.3442423 330.393068,29.3442423 C345.130518,29.3442423 352.376839,41.0819392 354.726998,47.4398583 L356,50.667725 L317.956815,66.3668946 C320.894512,72.0890219 325.398982,74.974539 331.763994,74.974539 Z M121.571723,74.974539 C130.18897,74.974539 137.631137,67.8830138 137.631137,57.7592502 C137.631137,47.5376725 130.18897,40.5439614 121.571723,40.5439614 C112.954477,40.5439614 105.512309,47.5376725 105.512309,57.7592502 C105.512309,67.8830138 112.954477,74.974539 121.571723,74.974539 Z M247.990648,74.974539 C256.509971,74.974539 263.217714,67.7851997 263.168753,57.8570644 C263.168753,47.880022 256.509971,40.5439614 247.990648,40.5439614 C239.373401,40.5439614 232.812543,47.7333008 232.812543,57.7592502 C232.812543,67.6384784 239.373401,74.974539 247.990648,74.974539 Z M185.22184,74.974539 C193.839087,74.974539 201.281254,67.8830138 201.281254,57.7592502 C201.281254,47.5376725 193.839087,40.5439614 185.22184,40.5439614 C176.604594,40.5439614 169.162426,47.5376725 169.162426,57.7592502 C169.162426,67.8830138 176.604594,74.974539 185.22184,74.974539 Z M330.882685,40.0059836 C324.41975,40.0059836 315.949388,44.9455978 315.949388,56.8789229 L341.654243,46.2660887 C340.234356,42.5980584 335.925732,40.0059836 330.882685,40.0059836 Z" id="Combined-Shape"></path>
        </g>
    </g>
</svg>