<?xml version="1.0" encoding="UTF-8"?>
<svg width="255px" height="253px" viewBox="0 0 255 253" version="1.1" xmlns="http://www.w3.org/2000/svg" xmlns:xlink="http://www.w3.org/1999/xlink">
    <!-- Generator: Sketch 55.2 (78181) - https://sketchapp.com -->
    <title>Slice</title>
    <desc>Created with Sketch.</desc>
    <defs>
        <linearGradient x1="50%" y1="0%" x2="50%" y2="100%" id="linearGradient-1">
            <stop stop-color="#249CCB" offset="0%"></stop>
            <stop stop-color="#F117B3" offset="100%"></stop>
        </linearGradient>
        <path d="M135.288581,14.055974 L230.91082,37.8972759 C242.003725,40.6630475 250.77847,49.1367208 253.929693,60.1263442 L281.09364,154.858282 C284.244863,165.847906 281.293821,177.683895 273.352139,185.907746 L204.893847,256.798384 C196.952166,265.022234 185.226377,268.38455 174.133472,265.618779 L78.5112333,241.777476 C67.4183286,239.011705 58.6435835,230.538032 55.4923597,219.548409 L28.3284135,124.81647 C25.1771897,113.826847 28.1282329,101.990858 36.069914,93.7670066 L104.528207,22.8763694 C112.469887,14.6525181 124.195677,11.2902021 135.288581,14.055974 Z M118,118 L151,118 C152.10457,118 153,117.10457 153,116 L153,83 C133.670034,83 118,98.6700337 118,118 Z M153,157 L153,124 C153,122.895431 152.10457,122 151,122 L118,122 C118,141.329966 133.670034,157 153,157 Z M153,196 L153,163 C153,161.895431 152.104569,161 151,161 L118,161 C118,180.329966 133.670034,196 153,196 Z M157,82.9999997 C157,93.8667153 157,104.733431 157,115.600147 C157,116.704716 157.89543,117.600147 159,117.600147 L191.31992,117.600147 C191.31992,98.4910131 175.954368,82.9999997 157,82.9999997 Z M157,122 L157,154.600146 C157,155.704716 157.89543,156.600146 159,156.600146 L191.31992,156.600146 C191.31992,137.491013 175.954368,122 157,122 Z M192,161 L159,161 C157.895431,161 157,161.895431 157,163 L157,196 C176.329966,196 192,180.329966 192,161 Z" id="path-2"></path>
    </defs>
    <g id="Page-1" stroke="none" stroke-width="1" fill="none" fill-rule="evenodd">
        <g id="shaping" transform="translate(-27.000000, -13.000000)">
            <mask id="mask-3" fill="white">
                <use xlink:href="#path-2"></use>
            </mask>
            <use id="Combined-Shape" fill="url(#linearGradient-1)" fill-rule="nonzero" xlink:href="#path-2"></use>
            <polygon id="Path" fill-opacity="0.12" fill="#FFFFFF" points="304.211027 252.72758 303.211027 297.72758 5.21102662 297.72758 5.21102662 83.7275799"></polygon>
            <polygon id="Path-2" fill-opacity="0.12" fill="#FFFFFF" points="0 211.902485 0 297.72758 309.422053 297.72758 309.422053 0.727579942"></polygon>
            <g id="Group" transform="translate(157.000000, 161.000000)"></g>
        </g>
    </g>
</svg>