<?xml version="1.0" encoding="UTF-8"?>
<svg width="257px" height="255px" viewBox="0 0 257 255" version="1.1" xmlns="http://www.w3.org/2000/svg" xmlns:xlink="http://www.w3.org/1999/xlink">
    <!-- Generator: Sketch 50.2 (55047) - http://www.bohemiancoding.com/sketch -->
    <title>shaping</title>
    <desc>Created with Sketch.</desc>
    <defs>
        <linearGradient x1="36.2181322%" y1="1.9369152%" x2="63.7818678%" y2="98.0630848%" id="linearGradient-1">
            <stop stop-color="#249CCB" offset="0%"></stop>
            <stop stop-color="#F117B3" offset="100%"></stop>
        </linearGradient>
        <path d="M109.077554,1.71859768 L204.699793,25.5598996 C215.792698,28.3256712 224.567443,36.7993445 227.718667,47.7889678 L254.882613,142.520906 C258.033837,153.51053 255.082794,165.346518 247.141112,173.570369 L178.68282,244.461007 C170.741139,252.684858 159.01535,256.047174 147.922446,253.281403 L52.3002067,229.4401 C41.207302,226.674329 32.4325569,218.200656 29.2813331,207.211032 L2.11738686,112.479094 C-1.03383694,101.489471 1.91720632,89.6534817 9.85888741,81.4296303 L78.31718,10.5389931 C86.2588606,2.31514177 97.9846499,-1.04717421 109.077554,1.71859768 Z M92,106 L125,106 C126.10457,106 127,105.104569 127,104 L127,71 C107.670034,71 92,86.6700337 92,106 Z M127,145 L127,112 C127,110.89543 126.104569,110 125,110 L92,110 C92,129.329966 107.670034,145 127,145 Z M127,184 L127,151 C127,149.895431 126.104569,149 125,149 L92,149 C92,168.329966 107.670034,184 127,184 Z M130.859886,71.140113 C130.859886,82.0068286 130.859886,92.8735442 130.859886,103.74026 C130.859886,104.844829 131.755317,105.74026 132.859886,105.74026 L165.179806,105.74026 C165.179806,86.6311264 149.814255,71.140113 130.859886,71.140113 Z M130.859886,110.140113 L130.859886,142.74026 C130.859886,143.844829 131.755317,144.74026 132.859886,144.74026 L165.179806,144.74026 C165.179806,125.631126 149.814255,110.140113 130.859886,110.140113 Z M166,149 L133,149 C131.895431,149 131,149.895431 131,151 L131,184 C150.329966,184 166,168.329966 166,149 Z" id="path-2"></path>
    </defs>
    <g id="Page-1" stroke="none" stroke-width="1" fill="none" fill-rule="evenodd">
        <g id="Group-2">
            <g id="shaping">
                <g id="Group">
                    <mask id="mask-3" fill="white">
                        <use xlink:href="#path-2"></use>
                    </mask>
                    <use id="Combined-Shape" fill="url(#linearGradient-1)" fill-rule="nonzero" xlink:href="#path-2"></use>
                </g>
            </g>
        </g>
    </g>
</svg>