<?xml version="1.0" encoding="UTF-8"?>
<svg width="311px" height="298px" viewBox="0 0 311 298" version="1.1" xmlns="http://www.w3.org/2000/svg" xmlns:xlink="http://www.w3.org/1999/xlink">
    <!-- Generator: Sketch 55.2 (78181) - https://sketchapp.com -->
    <title>shaping</title>
    <desc>Created with Sketch.</desc>
    <defs>
        <linearGradient x1="50%" y1="0%" x2="50%" y2="100%" id="linearGradient-1">
            <stop stop-color="#249CCB" offset="0%"></stop>
            <stop stop-color="#F117B3" offset="100%"></stop>
        </linearGradient>
        <path d="M165.5,31.8474007 L250.846442,81.1221921 C260.747277,86.8384415 266.846442,97.4025064 266.846442,108.835005 L266.846442,207.384587 C266.846442,218.817086 260.747277,229.381151 250.846442,235.0974 L165.5,284.372192 C155.599166,290.088441 143.400834,290.088441 133.5,284.372192 L48.1535578,235.0974 C38.2527233,229.381151 32.1535578,218.817086 32.1535578,207.384587 L32.1535578,108.835005 C32.1535578,97.4025064 38.2527233,86.8384415 48.1535578,81.1221921 L133.5,31.8474007 C143.400834,26.1311513 155.599166,26.1311513 165.5,31.8474007 Z" id="path-2"></path>
        <filter x="-16.2%" y="-10.6%" width="132.4%" height="121.2%" filterUnits="objectBoundingBox" id="filter-4">
            <feOffset dx="0" dy="2" in="SourceAlpha" result="shadowOffsetOuter1"></feOffset>
            <feGaussianBlur stdDeviation="2" in="shadowOffsetOuter1" result="shadowBlurOuter1"></feGaussianBlur>
            <feColorMatrix values="0 0 0 0 0   0 0 0 0 0   0 0 0 0 0  0 0 0 0.0567362325 0" type="matrix" in="shadowBlurOuter1" result="shadowMatrixOuter1"></feColorMatrix>
            <feMerge>
                <feMergeNode in="shadowMatrixOuter1"></feMergeNode>
                <feMergeNode in="SourceGraphic"></feMergeNode>
            </feMerge>
        </filter>
    </defs>
    <g id="Page-1" stroke="none" stroke-width="1" fill="none" fill-rule="evenodd">
        <g id="shaping" transform="translate(6.000000, -19.000000)">
            <g id="logo" transform="translate(0.000000, 0.390204)">
                <mask id="mask-3" fill="white">
                    <use xlink:href="#path-2"></use>
                </mask>
                <use id="Polygon" fill="url(#linearGradient-1)" fill-rule="nonzero" transform="translate(149.500000, 158.109796) rotate(-16.000000) translate(-149.500000, -158.109796) " xlink:href="#path-2"></use>
                <polygon id="Path" fill-opacity="0.12" fill="#FFFFFF" fill-rule="evenodd" points="299 271 298 316 0 316 0 102"></polygon>
                <polygon id="Path-2" fill-opacity="0.12" fill="#FFFFFF" fill-rule="evenodd" points="-5.21102662 230.174905 -5.21102662 316 304.211027 316 304.211027 19"></polygon>
            </g>
            <g id="Group" filter="url(#filter-4)" transform="translate(113.000000, 102.000000)" fill="#FFFFFF" fill-rule="nonzero">
                <path d="M0,35 C0,15.6700337 15.6700337,0 35,0 L35,33 C35,34.1045695 34.1045695,35 33,35" id="Combined-Shape"></path>
                <path d="M0,74 C0,54.6700338 15.6700337,39 35,39 L35,72 C35,73.1045695 34.1045695,74 33,74" id="Combined-Shape" transform="translate(17.500000, 56.500000) rotate(-90.000000) translate(-17.500000, -56.500000) "></path>
                <path d="M0,113 C0,93.6700338 15.6700338,78 35,78 L35,111 C35,112.104569 34.1045695,113 33,113 L0,113 Z" id="Combined-Shape" transform="translate(17.500000, 95.500000) rotate(-90.000000) translate(-17.500000, -95.500000) "></path>
                <path d="M38.8598862,34.4600332 C38.8598862,15.5056646 54.3508996,0.140112987 73.460033,0.140112987 L73.460033,32.4600332 C73.460033,33.5646027 72.5646025,34.4600332 71.460033,34.4600332 C60.5933174,34.4600332 49.7266018,34.4600332 38.8598862,34.4600332 Z" id="Combined-Shape" transform="translate(56.159960, 17.300073) rotate(90.000000) translate(-56.159960, -17.300073) "></path>
                <path d="M38.8598862,73.4600332 C38.8598862,54.5056646 54.3508996,39.140113 73.460033,39.140113 L73.460033,71.4600332 C73.460033,72.5646027 72.5646025,73.4600332 71.460033,73.4600332 L38.8598862,73.4600332 Z" id="Combined-Shape" transform="translate(56.159960, 56.300073) rotate(90.000000) translate(-56.159960, -56.300073) "></path>
                <path d="M39,113 C39,93.6700338 54.6700338,78 74,78 L74,111 C74,112.104569 73.1045695,113 72,113 L39,113 Z" id="Combined-Shape" transform="translate(56.500000, 95.500000) rotate(-180.000000) translate(-56.500000, -95.500000) "></path>
            </g>
        </g>
    </g>
</svg>