<?xml version="1.0" encoding="UTF-8"?>
<svg width="424px" height="94px" viewBox="0 0 424 94" version="1.1" xmlns="http://www.w3.org/2000/svg" xmlns:xlink="http://www.w3.org/1999/xlink">
    <!-- Generator: Sketch 50.2 (55047) - http://www.bohemiancoding.com/sketch -->
    <title>YouTube_Logo_2017</title>
    <desc>Created with Sketch.</desc>
    <defs></defs>
    <g id="Page-1" stroke="none" stroke-width="1" fill="none" fill-rule="evenodd">
        <g id="YouTube_Logo_2017" fill="#000000" fill-rule="nonzero">
            <g id="Group">
                <path d="M133.518852,14.7082353 C136.438525,25.2141176 136.32623,47.1105882 136.32623,47.1105882 C136.32623,47.1105882 136.32623,68.8964706 133.518852,79.4023529 C131.946721,85.1529412 127.342623,89.6870588 121.503279,91.2352941 C110.835246,94 68.1631148,94 68.1631148,94 C68.1631148,94 25.6032787,94 14.8229508,91.1247059 C8.98360656,89.5764706 4.3795082,85.0423529 2.80737705,79.2917647 C0,68.8964706 0,47 0,47 C0,47 0,25.2141176 2.80737705,14.7082353 C4.3795082,8.95764706 9.09590164,4.31294118 14.8229508,2.76470588 C25.4909836,0 68.1631148,0 68.1631148,0 C68.1631148,0 110.835246,0 121.503279,2.87529412 C127.342623,4.42352941 131.946721,8.95764706 133.518852,14.7082353 Z M54.5754098,67.1270588 L90.0606557,47 L54.5754098,26.8729412 L54.5754098,67.1270588 Z" id="Combined-Shape"></path>
            </g>
            <g id="Group" transform="translate(148.000000, 3.000000)">
                <path d="M48.1887097,82.1298701 C45.5177419,80.3636364 43.6258065,77.6038961 42.5129032,73.7402597 C41.4,69.987013 40.8435484,64.9090909 40.8435484,58.7272727 L40.8435484,50.2272727 C40.8435484,43.9350649 41.5112903,38.8571429 42.7354839,34.9935065 C44.0709677,31.1298701 46.0741935,28.3701299 48.7451613,26.6038961 C51.5274194,24.8376623 55.0887097,23.9545455 59.5403226,23.9545455 C63.8806452,23.9545455 67.4419355,24.8376623 70.1129032,26.6038961 C72.783871,28.3701299 74.6758065,31.2402597 75.9,34.9935065 C77.1241935,38.7467532 77.7919355,43.8246753 77.7919355,50.2272727 L77.7919355,58.7272727 C77.7919355,65.0194805 77.2354839,69.987013 76.0112903,73.8506494 C74.7870968,77.6038961 72.8951613,80.474026 70.2241935,82.2402597 C67.5532258,84.0064935 63.8806452,84.8896104 59.3177419,84.8896104 C54.6435484,84.7792208 50.8596774,83.8961039 48.1887097,82.1298701 Z M63.2129032,72.8571429 C63.9919355,70.9805195 64.3258065,67.7792208 64.3258065,63.474026 L64.3258065,45.1493506 C64.3258065,40.9545455 63.9919355,37.8636364 63.2129032,35.8766234 C62.433871,33.8896104 61.2096774,33.0064935 59.3177419,33.0064935 C57.5370968,33.0064935 56.2016129,34 55.533871,35.8766234 C54.7548387,37.8636364 54.4209677,40.9545455 54.4209677,45.1493506 L54.4209677,63.474026 C54.4209677,67.7792208 54.7548387,70.9805195 55.533871,72.8571429 C56.2016129,74.7337662 57.5370968,75.7272727 59.4290323,75.7272727 C61.2096774,75.7272727 62.433871,74.8441558 63.2129032,72.8571429 Z" id="Shape"></path>
                <path d="M253.630645,58.8376623 L253.630645,61.8181818 C253.630645,65.5714286 253.741935,68.4415584 253.964516,70.3181818 C254.187097,72.1948052 254.632258,73.6298701 255.41129,74.4025974 C256.079032,75.2857143 257.191935,75.7272727 258.75,75.7272727 C260.753226,75.7272727 262.08871,74.9545455 262.867742,73.4090909 C263.646774,71.8636364 263.980645,69.3246753 264.091935,65.6818182 L275.554839,66.3441558 C275.666129,66.8961039 275.666129,67.5584416 275.666129,68.4415584 C275.666129,73.8506494 274.219355,77.9350649 271.214516,80.5844156 C268.209677,83.2337662 263.980645,84.5584416 258.527419,84.5584416 C251.96129,84.5584416 247.398387,82.461039 244.727419,78.3766234 C242.056452,74.2922078 240.720968,68 240.720968,59.3896104 L240.720968,49.1233766 C240.720968,40.2922078 242.056452,33.8896104 244.83871,29.8051948 C247.620968,25.7207792 252.295161,23.7337662 258.86129,23.7337662 C263.424194,23.7337662 266.985484,24.6168831 269.433871,26.2727273 C271.882258,27.9285714 273.551613,30.5779221 274.553226,34 C275.554839,37.5324675 276,42.3896104 276,48.5714286 L276,58.6168831 L253.630645,58.6168831 L253.630645,58.8376623 Z M255.3,34.1103896 C254.632258,34.9935065 254.187097,36.3181818 253.964516,38.1948052 C253.741935,40.0714286 253.630645,42.9415584 253.630645,46.8051948 L253.630645,51 L263.424194,51 L263.424194,46.8051948 C263.424194,43.0519481 263.312903,40.1818182 263.090323,38.1948052 C262.867742,36.2077922 262.31129,34.8831169 261.643548,34.1103896 C260.975806,33.3376623 259.862903,32.8961039 258.527419,32.8961039 C256.969355,32.7857143 255.967742,33.2272727 255.3,34.1103896 Z" id="Shape"></path>
                <path d="M15.6919355,57.7337662 L0.556451613,3.31168831 L13.8,3.31168831 L19.1419355,27.9285714 C20.4774194,34 21.4790323,39.1883117 22.1467742,43.4935065 L22.4806452,43.4935065 C22.9258065,40.4025974 23.9274194,35.3246753 25.4854839,28.038961 L31.05,3.31168831 L44.2935484,3.31168831 L28.9354839,57.7337662 L28.9354839,83.7857143 L15.8032258,83.7857143 L15.8032258,57.7337662 L15.6919355,57.7337662 Z" id="Shape"></path>
                <path d="M120.86129,25.0584416 L120.86129,83.8961039 L110.4,83.8961039 L109.287097,76.7207792 L108.953226,76.7207792 C106.170968,82.1298701 101.830645,84.8896104 96.1548387,84.8896104 C92.2596774,84.8896104 89.366129,83.5649351 87.4741935,81.025974 C85.5822581,78.487013 84.6919355,74.512987 84.6919355,68.9935065 L84.6919355,25.0584416 L98.0467742,25.0584416 L98.0467742,68.2207792 C98.0467742,70.8701299 98.3806452,72.7467532 98.9370968,73.8506494 C99.4935484,74.9545455 100.495161,75.5064935 101.830645,75.5064935 C102.943548,75.5064935 104.056452,75.1753247 105.169355,74.4025974 C106.282258,73.7402597 107.06129,72.8571429 107.506452,71.7532468 L107.506452,25.0584416 L120.86129,25.0584416 Z" id="Shape"></path>
                <path d="M189.304839,25.0584416 L189.304839,83.8961039 L178.843548,83.8961039 L177.730645,76.7207792 L177.396774,76.7207792 C174.614516,82.1298701 170.274194,84.8896104 164.598387,84.8896104 C160.703226,84.8896104 157.809677,83.5649351 155.917742,81.025974 C154.025806,78.487013 153.135484,74.512987 153.135484,68.9935065 L153.135484,25.0584416 L166.490323,25.0584416 L166.490323,68.2207792 C166.490323,70.8701299 166.824194,72.7467532 167.380645,73.8506494 C167.937097,74.9545455 168.93871,75.5064935 170.274194,75.5064935 C171.387097,75.5064935 172.5,75.1753247 173.612903,74.4025974 C174.725806,73.7402597 175.504839,72.8571429 175.95,71.7532468 L175.95,25.0584416 L189.304839,25.0584416 Z" id="Shape"></path>
                <polygon id="Shape" points="157.141935 14.0194805 143.898387 14.0194805 143.898387 83.7857143 130.877419 83.7857143 130.877419 14.0194805 117.633871 14.0194805 117.633871 3.31168831 157.141935 3.31168831 157.141935 14.0194805"></polygon>
                <path d="M233.487097,34.4415584 C232.708065,30.6883117 231.372581,28.038961 229.591935,26.3831169 C227.81129,24.7272727 225.251613,23.8441558 222.135484,23.8441558 C219.687097,23.8441558 217.35,24.5064935 215.235484,25.9415584 C213.120968,27.2662338 211.451613,29.1428571 210.33871,31.3506494 L210.227419,31.3506494 L210.227419,0.331168831 L197.317742,0.331168831 L197.317742,83.7857143 L208.335484,83.7857143 L209.670968,78.2662338 L210.004839,78.2662338 C211.006452,80.2532468 212.564516,81.7987013 214.679032,83.012987 C216.793548,84.1168831 219.019355,84.7792208 221.579032,84.7792208 C226.141935,84.7792208 229.369355,82.6818182 231.483871,78.5974026 C233.598387,74.512987 234.71129,68 234.71129,59.2792208 L234.71129,50.0064935 C234.6,43.2727273 234.266129,38.0844156 233.487097,34.4415584 Z M221.245161,58.3961039 C221.245161,62.7012987 221.022581,66.012987 220.68871,68.4415584 C220.354839,70.8701299 219.687097,72.6363636 218.908065,73.6298701 C218.017742,74.6233766 216.904839,75.1753247 215.569355,75.1753247 C214.456452,75.1753247 213.454839,74.9545455 212.564516,74.4025974 C211.674194,73.8506494 210.895161,73.0779221 210.33871,72.0844156 L210.33871,38.7467532 C210.783871,37.2012987 211.562903,35.8766234 212.675806,34.7727273 C213.78871,33.7792208 215.012903,33.2272727 216.237097,33.2272727 C217.572581,33.2272727 218.685484,33.7792208 219.353226,34.7727273 C220.132258,35.8766234 220.577419,37.6428571 220.91129,40.0714286 C221.245161,42.6103896 221.356452,46.1428571 221.356452,50.6688312 L221.356452,58.3961039 L221.245161,58.3961039 Z" id="Shape"></path>
            </g>
        </g>
    </g>
</svg>